<?xml version="1.0" encoding="UTF-8" standalone="no"?> <!-- Created with Vectornator for iOS (http://vectornator.io/) --><!DOCTYPE svg PUBLIC "-//W3C//DTD SVG 1.1//EN" "http://www.w3.org/Graphics/SVG/1.1/DTD/svg11.dtd">
<svg height="100%" style="fill-rule:nonzero;clip-rule:evenodd;stroke-linecap:round;stroke-linejoin:round;" xmlns:xlink="http://www.w3.org/1999/xlink" xmlns="http://www.w3.org/2000/svg" xml:space="preserve" width="100%" xmlns:vectornator="http://vectornator.io" version="1.1" viewBox="0 0 1024 1024">
<metadata>
<vectornator:setting key="DimensionsVisible" value="1"/>
<vectornator:setting key="PencilOnly" value="0"/>
<vectornator:setting key="SnapToPoints" value="0"/>
<vectornator:setting key="OutlineMode" value="0"/>
<vectornator:setting key="CMYKEnabledKey" value="0"/>
<vectornator:setting key="RulersVisible" value="1"/>
<vectornator:setting key="SnapToEdges" value="0"/>
<vectornator:setting key="GuidesVisible" value="1"/>
<vectornator:setting key="DisplayWhiteBackground" value="0"/>
<vectornator:setting key="doHistoryDisabled" value="0"/>
<vectornator:setting key="SnapToGuides" value="1"/>
<vectornator:setting key="TimeLapseWatermarkDisabled" value="0"/>
<vectornator:setting key="Units" value="Pixels"/>
<vectornator:setting key="DynamicGuides" value="0"/>
<vectornator:setting key="IsolateActiveLayer" value="0"/>
<vectornator:setting key="SnapToGrid" value="0"/>
</metadata>
<defs>
<linearGradient y1="323.459" id="LinearGradient" x1="205.367" y2="323.459" x2="245.578" gradientUnits="userSpaceOnUse" gradientTransform="matrix(1 0 0 1 0 0)">
<stop stop-color="#371adf" offset="1"/>
<stop stop-color="#ffa1a7" offset="1"/>
</linearGradient>
<linearGradient y1="441.598" id="LinearGradient_2" x1="431.292" y2="441.598" x2="456.792" gradientUnits="userSpaceOnUse" gradientTransform="matrix(1 0 0 1 0 0)">
<stop stop-color="#030012" offset="1"/>
<stop stop-color="#000000" offset="1"/>
</linearGradient>
<linearGradient y1="493.36" id="LinearGradient_3" x1="1378.84" y2="493.36" x2="1408.31" gradientUnits="userSpaceOnUse" gradientTransform="matrix(1 0 0 1 0 0)">
<stop stop-color="#000000" offset="1"/>
<stop stop-color="#ffa1a7" offset="1"/>
</linearGradient>
<linearGradient y1="493.36" id="LinearGradient_4" x1="1378.84" y2="493.36" x2="1408.31" gradientUnits="userSpaceOnUse" gradientTransform="matrix(1 0 0 1 0 0)">
<stop stop-color="#000000" offset="1"/>
<stop stop-color="#ffa1a7" offset="1"/>
</linearGradient>
<linearGradient y1="493.36" id="LinearGradient_5" x1="1378.84" y2="493.36" x2="1408.31" gradientUnits="userSpaceOnUse" gradientTransform="matrix(1 0 0 1 0 0)">
<stop stop-color="#000000" offset="1"/>
<stop stop-color="#ffa1a7" offset="1"/>
</linearGradient>
<linearGradient y1="493.36" id="LinearGradient_6" x1="1378.84" y2="493.36" x2="1408.31" gradientUnits="userSpaceOnUse" gradientTransform="matrix(1 0 0 1 0 0)">
<stop stop-color="#000000" offset="1"/>
<stop stop-color="#ffa1a7" offset="1"/>
</linearGradient>
<linearGradient y1="784.501" id="LinearGradient_7" x1="319.098" y2="842.686" x2="217.383" gradientUnits="userSpaceOnUse" gradientTransform="matrix(1 0 0 1 0 0)">
<stop stop-color="#000000" offset="1"/>
<stop stop-color="#ffa1a7" offset="1"/>
</linearGradient>
<linearGradient y1="784.501" id="LinearGradient_8" x1="319.098" y2="842.686" x2="217.383" gradientUnits="userSpaceOnUse" gradientTransform="matrix(1 0 0 1 0 0)">
<stop stop-color="#000000" offset="1"/>
<stop stop-color="#ffa1a7" offset="1"/>
</linearGradient>
<linearGradient y1="784.501" id="LinearGradient_9" x1="319.098" y2="842.686" x2="217.383" gradientUnits="userSpaceOnUse" gradientTransform="matrix(1 0 0 1 0 0)">
<stop stop-color="#000000" offset="1"/>
<stop stop-color="#ffa1a7" offset="1"/>
</linearGradient>
<linearGradient y1="784.501" id="LinearGradient_10" x1="319.098" y2="842.686" x2="217.383" gradientUnits="userSpaceOnUse" gradientTransform="matrix(1 0 0 1 0 0)">
<stop stop-color="#000000" offset="1"/>
<stop stop-color="#ffa1a7" offset="1"/>
</linearGradient>
</defs>
<g id="Layer 1" vectornator:layerName="Layer 1">
<g opacity="0.893897">
<path d="M774.2+670.283C732.6+670.283+695.4+660.416+662.6+640.683C629.8+620.95+603.933+594.283+585+560.683C566.067+527.083+556.6+489.216+556.6+447.083C556.6+404.416+565.4+366.283+583+332.683C600.6+299.083+624.867+272.55+655.8+253.083C686.733+233.616+722.2+223.883+762.2+223.883C796.333+223.883+827.533+230.416+855.8+243.483C884.067+256.55+908.6+276.416+929.4+303.083C933.667+308.416+935.267+314.016+934.2+319.883C933.133+325.75+929.667+330.55+923.8+334.283C919+338.016+913.667+339.483+907.8+338.683C901.933+337.883+896.867+334.816+892.6+329.483C858.467+288.95+815+268.683+762.2+268.683C730.733+268.683+703.133+276.416+679.4+291.883C655.667+307.35+637.267+328.416+624.2+355.083C611.133+381.75+604.6+412.416+604.6+447.083C604.6+480.683+611.8+510.95+626.2+537.883C640.6+564.816+660.467+586.15+685.8+601.883C711.133+617.616+740.6+625.483+774.2+625.483C796.067+625.483+816.733+622.283+836.2+615.883C855.667+609.483+872.6+599.616+887+586.283C891.8+582.016+897.133+579.616+903+579.083C908.867+578.55+913.933+580.416+918.2+584.683C923.533+589.483+926.333+594.95+926.6+601.083C926.867+607.216+924.6+612.416+919.8+616.683C880.867+652.416+832.333+670.283+774.2+670.283Z" opacity="0.893897" fill="url(#LinearGradient)"/>
</g>
<g opacity="0.897773">
<path d="M272.55+779.19C262.417+779.19+254.95+773.59+250.15+762.39L67.75+371.99C65.6167+366.123+65.6167+360.39+67.75+354.79C69.8833+349.19+73.8833+345.056+79.75+342.39C85.6167+339.723+91.35+339.456+96.95+341.59C102.55+343.723+106.683+347.723+109.35+353.59L288.55+740.79L258.95+740.79L434.95+352.79C437.617+346.923+442.017+342.923+448.15+340.79C454.283+338.656+460.283+338.923+466.15+341.59C472.017+344.256+476.15+348.39+478.55+353.99C480.95+359.59+480.817+365.323+478.15+371.19L298.15+762.39C292.817+773.59+284.283+779.19+272.55+779.19Z" opacity="0.897773" fill="url(#LinearGradient_2)"/>
</g>
<g opacity="0.556688">
<path d="M1398.21+536.03C1397.74+536.03+1397.34+535.874+1397.03+535.562C1396.72+535.251+1396.56+534.856+1396.56+534.38L1396.56+493.075L1399.86+493.075L1399.86+534.38C1399.86+534.856+1399.71+535.251+1399.4+535.562C1399.08+535.874+1398.69+536.03+1398.21+536.03ZM1382.65+496.045C1382.21+496.045+1381.85+495.907+1381.58+495.632C1381.3+495.357+1381.16+495+1381.16+494.56C1381.16+494.12+1381.3+493.762+1381.58+493.487C1381.85+493.212+1382.21+493.075+1382.65+493.075L1413.78+493.075C1414.22+493.075+1414.58+493.212+1414.85+493.487C1415.13+493.762+1415.26+494.12+1415.26+494.56C1415.26+495+1415.13+495.357+1414.85+495.632C1414.58+495.907+1414.22+496.045+1413.78+496.045L1382.65+496.045Z" opacity="0.556688" fill="url(#LinearGradient_3)"/>
<path d="M1398.6+597.63C1395.7+597.63+1393.13+596.979+1390.87+595.677C1388.62+594.376+1386.85+592.57+1385.56+590.26C1384.28+587.95+1383.64+585.31+1383.64+582.34C1383.64+579.333+1384.24+576.684+1385.45+574.392C1386.66+572.101+1388.33+570.295+1390.46+568.975C1392.58+567.655+1395.02+566.995+1397.77+566.995C1400.49+566.995+1402.89+567.627+1404.98+568.892C1407.07+570.157+1408.7+571.899+1409.87+574.117C1411.05+576.336+1411.63+578.893+1411.63+581.79C1411.63+582.266+1411.49+582.642+1411.19+582.917C1410.9+583.192+1410.51+583.33+1410.04+583.33L1385.84+583.33L1385.84+580.47L1410.92+580.47L1408.5+582.285C1408.57+579.901+1408.17+577.793+1407.29+575.96C1406.41+574.126+1405.15+572.687+1403.52+571.642C1401.89+570.597+1399.97+570.075+1397.77+570.075C1395.68+570.075+1393.82+570.597+1392.19+571.642C1390.56+572.687+1389.28+574.126+1388.34+575.96C1387.41+577.793+1386.94+579.92+1386.94+582.34C1386.94+584.723+1387.43+586.831+1388.42+588.665C1389.41+590.498+1390.79+591.937+1392.55+592.982C1394.31+594.027+1396.32+594.55+1398.6+594.55C1400.03+594.55+1401.47+594.302+1402.92+593.807C1404.36+593.312+1405.51+592.661+1406.35+591.855C1406.65+591.561+1407+591.406+1407.43+591.387C1407.85+591.369+1408.2+591.488+1408.5+591.745C1408.9+592.075+1409.11+592.441+1409.13+592.845C1409.15+593.248+1408.97+593.615+1408.61+593.945C1407.43+595.008+1405.9+595.888+1404.02+596.585C1402.13+597.281+1400.32+597.63+1398.6+597.63Z" opacity="0.556688" fill="url(#LinearGradient_4)"/>
<path d="M1406.19+658.68C1405.75+658.68+1405.4+658.597+1405.14+658.432C1404.89+658.267+1404.61+658.001+1404.32+657.635L1394.86+645.095L1393.48+644.05L1383.86+631.345C1383.56+630.978+1383.44+630.584+1383.47+630.162C1383.51+629.741+1383.67+629.374+1383.97+629.062C1384.26+628.751+1384.65+628.595+1385.12+628.595C1385.6+628.595+1386+628.76+1386.33+629.09L1395.52+641.3L1397+642.455L1407.18+655.985C1407.65+656.571+1407.83+657.066+1407.7+657.47C1407.57+657.873+1407.34+658.176+1407.01+658.377C1406.68+658.579+1406.41+658.68+1406.19+658.68ZM1383.91+658.68C1383.44+658.68+1383.05+658.533+1382.76+658.24C1382.46+657.946+1382.3+657.589+1382.26+657.167C1382.23+656.746+1382.35+656.351+1382.65+655.985L1393.32+642.73L1395.24+645.15L1385.07+658.185C1384.85+658.515+1384.46+658.68+1383.91+658.68ZM1396.29+644.27L1394.31+641.85L1404.32+629.585C1404.61+629.255+1404.9+629.007+1405.17+628.842C1405.45+628.677+1405.73+628.595+1406.02+628.595C1406.54+628.595+1406.92+628.751+1407.18+629.062C1407.43+629.374+1407.56+629.741+1407.56+630.162C1407.56+630.584+1407.42+630.978+1407.12+631.345L1396.29+644.27Z" opacity="0.556688" fill="url(#LinearGradient_5)"/>
<path d="M1397.61+720.005C1395.59+719.968+1393.79+719.501+1392.22+718.602C1390.64+717.704+1389.41+716.457+1388.53+714.862C1387.65+713.267+1387.21+711.461+1387.21+709.445L1387.21+682.055C1387.21+681.541+1387.37+681.129+1387.68+680.817C1387.99+680.506+1388.39+680.35+1388.86+680.35C1389.38+680.35+1389.79+680.506+1390.1+680.817C1390.41+681.129+1390.57+681.541+1390.57+682.055L1390.57+709.445C1390.57+711.571+1391.23+713.304+1392.55+714.642C1393.87+715.981+1395.57+716.65+1397.66+716.65L1398.87+716.65C1399.39+716.65+1399.8+716.806+1400.11+717.117C1400.42+717.429+1400.58+717.841+1400.58+718.355C1400.58+718.831+1400.42+719.226+1400.11+719.537C1399.8+719.849+1399.39+720.005+1398.87+720.005L1397.61+720.005ZM1382.92+693.99C1382.48+693.99+1382.13+693.852+1381.85+693.577C1381.58+693.302+1381.44+692.945+1381.44+692.505C1381.44+692.065+1381.58+691.707+1381.85+691.432C1382.13+691.157+1382.48+691.02+1382.92+691.02L1397.83+691.02C1398.27+691.02+1398.63+691.157+1398.9+691.432C1399.18+691.707+1399.31+692.065+1399.31+692.505C1399.31+692.945+1399.18+693.302+1398.9+693.577C1398.63+693.852+1398.27+693.99+1397.83+693.99L1382.92+693.99Z" opacity="0.556688" fill="url(#LinearGradient_6)"/>
</g>
<g opacity="0.893897">
<path d="M719.262+733.37L719.262+760.567C724.21+754.122+730.183+750.899+737.182+750.899C743.171+750.899+748.298+753.072+752.563+757.418C756.827+761.764+758.959+767.094+758.959+773.409C758.959+779.789+756.802+785.193+752.489+789.62C748.176+794.047+743.074+796.261+737.182+796.261C730.02+796.261+724.047+793.038+719.262+786.593L719.262+794.649L709.643+794.649C708.666+794.649+707.966+794.454+707.543+794.063C707.12+793.673+706.908+793.184+706.908+792.598C706.908+791.98+707.12+791.484+707.543+791.109C707.966+790.735+708.666+790.548+709.643+790.548L715.16+790.548L715.16+737.52L709.643+737.52C708.666+737.52+707.966+737.325+707.543+736.934C707.12+736.544+706.908+736.039+706.908+735.421C706.908+734.835+707.12+734.347+707.543+733.956C707.966+733.565+708.666+733.37+709.643+733.37L719.262+733.37ZM754.857+773.604C754.857+768.429+753.083+764.042+749.535+760.445C745.987+756.848+741.837+755.05+737.084+755.05C732.331+755.05+728.181+756.848+724.633+760.445C721.085+764.042+719.311+768.429+719.311+773.604C719.311+778.78+721.085+783.167+724.633+786.764C728.181+790.361+732.331+792.159+737.084+792.159C741.837+792.159+745.987+790.361+749.535+786.764C753.083+783.167+754.857+778.78+754.857+773.604Z" opacity="0.893897" fill="url(#LinearGradient_7)"/>
<path d="M816.918+774.483L775.121+774.483C775.837+779.789+778.059+784.062+781.786+787.301C785.513+790.54+790.128+792.159+795.629+792.159C798.689+792.159+801.895+791.654+805.248+790.645C808.601+789.636+811.335+788.302+813.451+786.641C814.07+786.153+814.607+785.909+815.063+785.909C815.583+785.909+816.039+786.112+816.43+786.519C816.82+786.926+817.016+787.406+817.016+787.96C817.016+788.513+816.755+789.05+816.234+789.571C814.672+791.199+811.897+792.721+807.909+794.137C803.922+795.553+799.828+796.261+795.629+796.261C788.598+796.261+782.73+793.958+778.026+789.351C773.323+784.745+770.971+779.171+770.971+772.628C770.971+766.671+773.176+761.56+777.587+757.296C781.998+753.031+787.458+750.899+793.969+750.899C800.674+750.899+806.192+753.088+810.521+757.467C814.851+761.845+816.983+767.517+816.918+774.483ZM812.768+770.333C811.954+765.808+809.813+762.13+806.347+759.298C802.88+756.466+798.754+755.05+793.969+755.05C789.184+755.05+785.066+756.449+781.615+759.249C778.165+762.048+776.016+765.743+775.17+770.333L812.768+770.333Z" opacity="0.893897" fill="url(#LinearGradient_8)"/>
<path d="M846.313+752.364L868.578+752.364C869.555+752.364+870.255+752.559+870.678+752.95C871.101+753.341+871.313+753.845+871.313+754.464C871.313+755.05+871.101+755.538+870.678+755.929C870.255+756.319+869.555+756.514+868.578+756.514L846.313+756.514L846.313+783.809C846.313+786.186+847.265+788.171+849.169+789.766C851.073+791.362+853.865+792.159+857.543+792.159C860.31+792.159+863.305+791.744+866.527+790.914C869.75+790.084+872.257+789.148+874.047+788.106C874.698+787.683+875.235+787.472+875.658+787.472C876.179+787.472+876.635+787.675+877.025+788.082C877.416+788.489+877.611+788.969+877.611+789.522C877.611+790.011+877.4+790.466+876.977+790.889C875.935+791.964+873.404+793.127+869.384+794.381C865.364+795.634+861.514+796.261+857.836+796.261C853.051+796.261+849.242+795.138+846.41+792.891C843.578+790.645+842.162+787.618+842.162+783.809L842.162+756.514L834.594+756.514C833.617+756.514+832.917+756.319+832.494+755.929C832.071+755.538+831.859+755.033+831.859+754.415C831.859+753.829+832.071+753.341+832.494+752.95C832.917+752.559+833.617+752.364+834.594+752.364L842.162+752.364L842.162+740.255C842.162+739.278+842.357+738.578+842.748+738.155C843.139+737.732+843.627+737.52+844.213+737.52C844.831+737.52+845.336+737.732+845.727+738.155C846.117+738.578+846.313+739.278+846.313+740.255L846.313+752.364Z" opacity="0.893897" fill="url(#LinearGradient_9)"/>
<path d="M926.537+794.649L926.537+788.741C920.58+793.754+914.216+796.261+907.445+796.261C902.53+796.261+898.689+795.015+895.922+792.525C893.155+790.035+891.771+786.983+891.771+783.37C891.771+779.399+893.594+775.932+897.24+772.97C900.886+770.007+906.208+768.526+913.207+768.526C915.095+768.526+917.146+768.648+919.359+768.892C921.573+769.137+923.965+769.519+926.537+770.04L926.537+763.399C926.537+761.153+925.495+759.2+923.412+757.54C921.329+755.88+918.204+755.05+914.037+755.05C910.847+755.05+906.371+755.977+900.609+757.833C899.568+758.158+898.9+758.321+898.607+758.321C898.087+758.321+897.639+758.126+897.265+757.735C896.89+757.345+896.703+756.856+896.703+756.27C896.703+755.717+896.866+755.278+897.191+754.952C897.647+754.464+899.486+753.796+902.709+752.95C907.787+751.583+911.628+750.899+914.232+750.899C919.408+750.899+923.445+752.177+926.342+754.732C929.239+757.288+930.688+760.177+930.688+763.399L930.688+790.548L936.156+790.548C937.165+790.548+937.882+790.735+938.305+791.109C938.728+791.484+938.939+791.98+938.939+792.598C938.939+793.184+938.728+793.673+938.305+794.063C937.882+794.454+937.165+794.649+936.156+794.649L926.537+794.649ZM926.537+774.239C924.617+773.686+922.582+773.279+920.434+773.018C918.285+772.758+916.023+772.628+913.646+772.628C907.689+772.628+903.035+773.914+899.682+776.485C897.143+778.406+895.873+780.701+895.873+783.37C895.873+785.844+896.841+787.927+898.778+789.62C900.715+791.313+903.539+792.159+907.25+792.159C910.798+792.159+914.094+791.451+917.138+790.035C920.181+788.619+923.314+786.365+926.537+783.272L926.537+774.239Z" opacity="0.893897" fill="url(#LinearGradient_10)"/>
</g>
</g>
</svg>
