<?xml version="1.0" encoding="UTF-8" standalone="no"?> <!-- Created with Vectornator for iOS (http://vectornator.io/) --><!DOCTYPE svg PUBLIC "-//W3C//DTD SVG 1.1//EN" "http://www.w3.org/Graphics/SVG/1.1/DTD/svg11.dtd">
<svg height="100%" style="fill-rule:nonzero;clip-rule:evenodd;stroke-linecap:round;stroke-linejoin:round;" xmlns:xlink="http://www.w3.org/1999/xlink" xmlns="http://www.w3.org/2000/svg" xml:space="preserve" width="100%" xmlns:vectornator="http://vectornator.io" version="1.1" viewBox="0 0 1024 1024">
<metadata>
<vectornator:setting key="DimensionsVisible" value="1"/>
<vectornator:setting key="PencilOnly" value="0"/>
<vectornator:setting key="SnapToPoints" value="0"/>
<vectornator:setting key="OutlineMode" value="0"/>
<vectornator:setting key="CMYKEnabledKey" value="0"/>
<vectornator:setting key="RulersVisible" value="1"/>
<vectornator:setting key="SnapToEdges" value="0"/>
<vectornator:setting key="GuidesVisible" value="1"/>
<vectornator:setting key="DisplayWhiteBackground" value="0"/>
<vectornator:setting key="doHistoryDisabled" value="0"/>
<vectornator:setting key="SnapToGuides" value="1"/>
<vectornator:setting key="TimeLapseWatermarkDisabled" value="0"/>
<vectornator:setting key="Units" value="Points"/>
<vectornator:setting key="DynamicGuides" value="0"/>
<vectornator:setting key="IsolateActiveLayer" value="0"/>
<vectornator:setting key="SnapToGrid" value="0"/>
</metadata>
<defs/>
<g id="Layer 1" vectornator:layerName="Layer 1">
<g opacity="0.81811">
<path d="M306.151+877.032L495.151+360.032L406.151+360.032L265.151+791.032L263.151+791.032L118.151+360.032L23.1506+360.032L215.151+877.032L306.151+877.032Z" opacity="0.81811" fill="#1c3ed3"/>
</g>
<g opacity="0.81811">
<path d="M911.125+343.966L999.125+343.966C995.791+313.299+987.791+286.799+975.125+264.466C962.458+242.132+946.291+223.632+926.625+208.966C906.958+194.299+884.291+183.466+858.625+176.466C832.958+169.466+805.458+165.966+776.125+165.966C735.458+165.966+699.791+173.132+669.125+187.466C638.458+201.799+612.958+221.466+592.625+246.466C572.291+271.466+557.125+300.799+547.125+334.466C537.125+368.132+532.125+404.299+532.125+442.966C532.125+481.632+537.291+517.132+547.625+549.466C557.958+581.799+573.291+609.632+593.625+632.966C613.958+656.299+639.291+674.299+669.625+686.966C699.958+699.632+734.791+705.966+774.125+705.966C840.125+705.966+892.291+688.632+930.625+653.966C968.958+619.299+992.791+569.966+1002.12+505.966L915.125+505.966C909.791+545.966+895.291+576.966+871.625+598.966C847.958+620.966+815.125+631.966+773.125+631.966C746.458+631.966+723.458+626.632+704.125+615.966C684.791+605.299+669.125+591.132+657.125+573.466C645.125+555.799+636.291+535.632+630.625+512.966C624.958+490.299+622.125+466.966+622.125+442.966C622.125+416.966+624.791+391.799+630.125+367.466C635.458+343.132+644.291+321.632+656.625+302.966C668.958+284.299+685.458+269.299+706.125+257.966C726.791+246.632+752.458+240.966+783.125+240.966C819.125+240.966+847.791+249.966+869.125+267.966C890.458+285.966+904.458+311.299+911.125+343.966Z" opacity="0.81811" fill="#141414"/>
</g>
<g opacity="0.81811">
<path d="M480.233+898.034C484.465+892.175+490.182+887.454+497.384+883.874C504.586+880.293+512.175+878.503+520.15+878.503C534.961+878.503+546.497+884.443+554.757+896.325C563.017+908.206+567.147+923.831+567.147+943.2C567.147+962.813+562.753+979.19+553.964+992.333C545.175+1005.48+533.415+1012.05+518.685+1012.05C510.791+1012.05+503.406+1010.07+496.53+1006.13C489.653+1002.18+484.221+996.952+480.233+990.441L480.233+1008.75L461.19+1008.75L461.19+836.51L480.233+836.51L480.233+898.034ZM480.233+916.955L480.233+969.811C483.814+976.973+488.656+982.954+494.76+987.756C500.863+992.557+507.17+994.958+513.68+994.958C523.934+994.958+532.093+990.075+538.156+980.309C544.218+970.544+547.25+958.54+547.25+944.299C547.25+929.65+544.361+917.769+538.583+908.654C532.805+899.539+524.748+894.982+514.413+894.982C500.985+894.982+489.592+902.306+480.233+916.955Z" opacity="0.81811" fill="#141414"/>
<path d="M713.021+945.763L625.741+945.763C625.741+960.168+629.912+972.049+638.253+981.408C646.595+990.767+656.828+995.446+668.954+995.446C680.51+995.446+692.432+993.371+704.72+989.22L708.016+1004.48C696.786+1009.52+683.684+1012.05+668.71+1012.05C649.83+1012.05+634.611+1005.98+623.055+993.859C611.499+981.733+605.721+965.376+605.721+944.787C605.721+924.605+610.909+908.512+621.285+896.508C631.661+884.504+645.069+878.503+661.508+878.503C676.156+878.503+688.404+884.077+698.251+895.226C708.098+906.375+713.021+921.227+713.021+939.782L713.021+945.763ZM692.269+930.26C692.269+920.332+689.177+911.97+682.992+905.175C676.807+898.38+669.89+894.982+662.24+894.982C652.393+894.982+644.235+898.237+637.765+904.748C631.295+911.258+627.694+919.762+626.962+930.26L692.269+930.26Z" opacity="0.81811" fill="#141414"/>
<path d="M860.482+1003.01C847.706+1008.87+835.132+1011.8+822.762+1011.8C800.057+1011.8+788.705+999.8+788.705+975.793L788.705+898.034L764.291+898.034L764.291+881.554L788.705+881.554L788.705+846.764L807.26+846.764L807.26+881.554L850.472+881.554L850.472+898.034L807.26+898.034L807.26+970.788C807.26+978.519+808.969+984.521+812.387+988.793C815.804+993.066+820.443+995.202+826.303+995.202C836.719+995.202+847.014+992.883+857.186+988.244L860.482+1003.01Z" opacity="0.81811" fill="#141414"/>
<path d="M1012.46+1008.75L993.539+1008.75C991.993+1003.62+991.22+996.789+991.22+988.244C980.396+1004.11+965.666+1012.05+947.03+1012.05C937.59+1012.05+929.269+1008.69+922.067+1001.98C914.865+995.263+911.263+986.616+911.263+976.037C911.263+969.771+912.525+964.237+915.048+959.435C917.57+954.634+921.273+950.585+926.156+947.289C931.039+943.993+936.98+941.389+943.978+939.477C950.977+937.564+959.278+936.242+968.881+935.509L990.243+933.801L990.243+927.697C990.243+905.887+980.07+894.982+959.725+894.982C954.924+894.982+948.841+896.02+941.476+898.095C934.111+900.17+927.784+902.632+922.494+905.48L917.489+891.808C934.823+882.938+950.936+878.503+965.829+878.503C994.8+878.503+1009.29+893.843+1009.29+924.523L1009.29+979.211C1009.29+990.278+1010.34+1000.13+1012.46+1008.75ZM990.243+971.032L990.243+947.961C973.072+949.507+961.292+950.951+954.904+952.294C948.515+953.637+942.981+956.139+938.302+959.801C933.623+963.464+931.283+968.428+931.283+974.694C931.283+980.391+933.277+984.989+937.264+988.488C941.252+991.987+946.338+993.737+952.523+993.737C959.278+993.737+965.992+991.723+972.665+987.695C979.338+983.666+985.197+978.112+990.243+971.032Z" opacity="0.81811" fill="#141414"/>
</g>
</g>
</svg>
