<?xml version="1.0" encoding="UTF-8" standalone="no"?> <!-- Created with Vectornator for iOS (http://vectornator.io/) --><!DOCTYPE svg PUBLIC "-//W3C//DTD SVG 1.1//EN" "http://www.w3.org/Graphics/SVG/1.1/DTD/svg11.dtd">
<svg height="100%" style="fill-rule:nonzero;clip-rule:evenodd;stroke-linecap:round;stroke-linejoin:round;" xmlns:xlink="http://www.w3.org/1999/xlink" xmlns="http://www.w3.org/2000/svg" xml:space="preserve" width="100%" xmlns:vectornator="http://vectornator.io" version="1.1" viewBox="0 0 2880 1800">
<metadata>
<vectornator:setting key="DimensionsVisible" value="1"/>
<vectornator:setting key="PencilOnly" value="0"/>
<vectornator:setting key="SnapToPoints" value="0"/>
<vectornator:setting key="OutlineMode" value="0"/>
<vectornator:setting key="CMYKEnabledKey" value="0"/>
<vectornator:setting key="RulersVisible" value="1"/>
<vectornator:setting key="SnapToEdges" value="0"/>
<vectornator:setting key="GuidesVisible" value="1"/>
<vectornator:setting key="DisplayWhiteBackground" value="0"/>
<vectornator:setting key="doHistoryDisabled" value="0"/>
<vectornator:setting key="SnapToGuides" value="1"/>
<vectornator:setting key="TimeLapseWatermarkDisabled" value="0"/>
<vectornator:setting key="Units" value="Points"/>
<vectornator:setting key="DynamicGuides" value="0"/>
<vectornator:setting key="IsolateActiveLayer" value="0"/>
<vectornator:setting key="SnapToGrid" value="0"/>
</metadata>
<defs/>
<g id="Layer 1" vectornator:layerName="Layer 1">
<g opacity="0.81811">
<path d="M988.441+745.03L1076.44+745.03C1073.11+714.364+1065.11+687.864+1052.44+665.53C1039.77+643.197+1023.61+624.697+1003.94+610.03C984.275+595.364+961.608+584.53+935.941+577.53C910.275+570.53+882.775+567.03+853.441+567.03C812.775+567.03+777.108+574.197+746.441+588.53C715.775+602.864+690.275+622.53+669.941+647.53C649.608+672.53+634.441+701.864+624.441+735.53C614.441+769.197+609.441+805.364+609.441+844.03C609.441+882.697+614.608+918.197+624.941+950.53C635.275+982.864+650.608+1010.7+670.941+1034.03C691.275+1057.36+716.608+1075.36+746.941+1088.03C777.275+1100.7+812.108+1107.03+851.441+1107.03C917.441+1107.03+969.608+1089.7+1007.94+1055.03C1046.27+1020.36+1070.11+971.03+1079.44+907.03L992.441+907.03C987.108+947.03+972.608+978.03+948.941+1000.03C925.275+1022.03+892.441+1033.03+850.441+1033.03C823.775+1033.03+800.775+1027.7+781.441+1017.03C762.108+1006.36+746.441+992.197+734.441+974.53C722.441+956.864+713.608+936.697+707.941+914.03C702.275+891.364+699.441+868.03+699.441+844.03C699.441+818.03+702.108+792.864+707.441+768.53C712.775+744.197+721.608+722.697+733.941+704.03C746.275+685.364+762.775+670.364+783.441+659.03C804.108+647.697+829.775+642.03+860.441+642.03C896.441+642.03+925.108+651.03+946.441+669.03C967.775+687.03+981.775+712.364+988.441+745.03Z" opacity="0.81811" fill="#141414"/>
<path d="M1603.71+1096.03L1603.71+579.03L1518.71+579.03L1518.71+871.03C1518.71+894.364+1515.54+915.864+1509.21+935.53C1502.88+955.197+1493.38+972.364+1480.71+987.03C1468.04+1001.7+1452.21+1013.03+1433.21+1021.03C1414.21+1029.03+1391.71+1033.03+1365.71+1033.03C1333.04+1033.03+1307.38+1023.7+1288.71+1005.03C1270.04+986.364+1260.71+961.03+1260.71+929.03L1260.71+579.03L1175.71+579.03L1175.71+919.03C1175.71+947.03+1178.54+972.53+1184.21+995.53C1189.88+1018.53+1199.71+1038.36+1213.71+1055.03C1227.71+1071.7+1246.04+1084.53+1268.71+1093.53C1291.38+1102.53+1319.71+1107.03+1353.71+1107.03C1391.71+1107.03+1424.71+1099.53+1452.71+1084.53C1480.71+1069.53+1503.71+1046.03+1521.71+1014.03L1523.71+1014.03L1523.71+1096.03L1603.71+1096.03Z" opacity="0.81811" fill="#141414"/>
<path d="M1735.98+382.03L1735.98+1096.03L1820.98+1096.03L1820.98+1027.03L1822.98+1027.03C1832.31+1042.36+1843.81+1055.2+1857.48+1065.53C1871.14+1075.86+1885.64+1084.03+1900.98+1090.03C1916.31+1096.03+1931.81+1100.36+1947.48+1103.03C1963.14+1105.7+1977.31+1107.03+1989.98+1107.03C2029.31+1107.03+2063.81+1100.03+2093.48+1086.03C2123.14+1072.03+2147.81+1052.86+2167.48+1028.53C2187.14+1004.2+2201.81+975.697+2211.48+943.03C2221.14+910.364+2225.98+875.697+2225.98+839.03C2225.98+802.364+2220.98+767.697+2210.98+735.03C2200.98+702.364+2186.14+673.53+2166.48+648.53C2146.81+623.53+2122.14+603.697+2092.48+589.03C2062.81+574.364+2027.98+567.03+1987.98+567.03C1951.98+567.03+1918.98+573.53+1888.98+586.53C1858.98+599.53+1836.98+620.364+1822.98+649.03L1820.98+649.03L1820.98+382.03L1735.98+382.03ZM2135.98+833.03C2135.98+858.364+2133.31+883.03+2127.98+907.03C2122.64+931.03+2113.98+952.364+2101.98+971.03C2089.98+989.697+2074.14+1004.7+2054.48+1016.03C2034.81+1027.36+2010.31+1033.03+1980.98+1033.03C1951.64+1033.03+1926.64+1027.53+1905.98+1016.53C1885.31+1005.53+1868.48+991.03+1855.48+973.03C1842.48+955.03+1832.98+934.197+1826.98+910.53C1820.98+886.864+1817.98+862.364+1817.98+837.03C1817.98+813.03+1820.81+789.364+1826.48+766.03C1832.14+742.697+1841.31+721.864+1853.98+703.53C1866.64+685.197+1882.98+670.364+1902.98+659.03C1922.98+647.697+1947.31+642.03+1975.98+642.03C2003.31+642.03+2027.14+647.364+2047.48+658.03C2067.81+668.697+2084.48+683.03+2097.48+701.03C2110.48+719.03+2120.14+739.53+2126.48+762.53C2132.81+785.53+2135.98+809.03+2135.98+833.03Z" opacity="0.81811" fill="#141414"/>
<path d="M2389.24+838.03C2389.24+806.697+2393.41+778.864+2401.74+754.53C2410.08+730.197+2421.58+709.697+2436.24+693.03C2450.91+676.364+2468.08+663.697+2487.74+655.03C2507.41+646.364+2528.24+642.03+2550.24+642.03C2572.24+642.03+2593.08+646.364+2612.74+655.03C2632.41+663.697+2649.58+676.364+2664.24+693.03C2678.91+709.697+2690.41+730.197+2698.74+754.53C2707.08+778.864+2711.24+806.697+2711.24+838.03C2711.24+869.364+2707.08+897.197+2698.74+921.53C2690.41+945.864+2678.91+966.197+2664.24+982.53C2649.58+998.864+2632.41+1011.36+2612.74+1020.03C2593.08+1028.7+2572.24+1033.03+2550.24+1033.03C2528.24+1033.03+2507.41+1028.7+2487.74+1020.03C2468.08+1011.36+2450.91+998.864+2436.24+982.53C2421.58+966.197+2410.08+945.864+2401.74+921.53C2393.41+897.197+2389.24+869.364+2389.24+838.03ZM2299.24+838.03C2299.24+876.03+2304.58+911.364+2315.24+944.03C2325.91+976.697+2341.91+1005.2+2363.24+1029.53C2384.58+1053.86+2410.91+1072.86+2442.24+1086.53C2473.58+1100.2+2509.58+1107.03+2550.24+1107.03C2591.58+1107.03+2627.74+1100.2+2658.74+1086.53C2689.74+1072.86+2715.91+1053.86+2737.24+1029.53C2758.58+1005.2+2774.58+976.697+2785.24+944.03C2795.91+911.364+2801.24+876.03+2801.24+838.03C2801.24+800.03+2795.91+764.53+2785.24+731.53C2774.58+698.53+2758.58+669.864+2737.24+645.53C2715.91+621.197+2689.74+602.03+2658.74+588.03C2627.74+574.03+2591.58+567.03+2550.24+567.03C2509.58+567.03+2473.58+574.03+2442.24+588.03C2410.91+602.03+2384.58+621.197+2363.24+645.53C2341.91+669.864+2325.91+698.53+2315.24+731.53C2304.58+764.53+2299.24+800.03+2299.24+838.03Z" opacity="0.81811" fill="#141414"/>
</g>
<g opacity="0.81811">
<path d="M385.755+1227.13L574.755+710.13L485.755+710.13L344.755+1141.13L342.755+1141.13L197.755+710.13L102.755+710.13L294.755+1227.13L385.755+1227.13Z" opacity="0.81811" fill="#1c3ed3"/>
</g>
</g>
</svg>
