<?xml version="1.0" encoding="UTF-8" standalone="no"?> <!-- Created with Vectornator for iOS (http://vectornator.io/) --><!DOCTYPE svg PUBLIC "-//W3C//DTD SVG 1.1//EN" "http://www.w3.org/Graphics/SVG/1.1/DTD/svg11.dtd">
<svg height="100%" style="fill-rule:nonzero;clip-rule:evenodd;stroke-linecap:round;stroke-linejoin:round;" xmlns:xlink="http://www.w3.org/1999/xlink" xmlns="http://www.w3.org/2000/svg" xml:space="preserve" width="100%" xmlns:vectornator="http://vectornator.io" version="1.1" viewBox="0 0 2880 1800">
<metadata>
<vectornator:setting key="DimensionsVisible" value="1"/>
<vectornator:setting key="PencilOnly" value="0"/>
<vectornator:setting key="SnapToPoints" value="0"/>
<vectornator:setting key="OutlineMode" value="0"/>
<vectornator:setting key="CMYKEnabledKey" value="0"/>
<vectornator:setting key="RulersVisible" value="1"/>
<vectornator:setting key="SnapToEdges" value="0"/>
<vectornator:setting key="GuidesVisible" value="1"/>
<vectornator:setting key="DisplayWhiteBackground" value="0"/>
<vectornator:setting key="doHistoryDisabled" value="0"/>
<vectornator:setting key="SnapToGuides" value="1"/>
<vectornator:setting key="TimeLapseWatermarkDisabled" value="0"/>
<vectornator:setting key="Units" value="Points"/>
<vectornator:setting key="DynamicGuides" value="0"/>
<vectornator:setting key="IsolateActiveLayer" value="0"/>
<vectornator:setting key="SnapToGrid" value="0"/>
</metadata>
<defs/>
<g id="Layer 1" vectornator:layerName="Layer 1">
<g opacity="0.902248">
<path d="M989.075+745.03L1077.08+745.03C1073.74+714.364+1065.74+687.864+1053.08+665.53C1040.41+643.197+1024.24+624.697+1004.58+610.03C984.908+595.364+962.242+584.53+936.575+577.53C910.908+570.53+883.408+567.03+854.075+567.03C813.408+567.03+777.742+574.197+747.075+588.53C716.408+602.864+690.908+622.53+670.575+647.53C650.242+672.53+635.075+701.864+625.075+735.53C615.075+769.197+610.075+805.364+610.075+844.03C610.075+882.697+615.242+918.197+625.575+950.53C635.908+982.864+651.242+1010.7+671.575+1034.03C691.908+1057.36+717.242+1075.36+747.575+1088.03C777.908+1100.7+812.742+1107.03+852.075+1107.03C918.075+1107.03+970.242+1089.7+1008.58+1055.03C1046.91+1020.36+1070.74+971.03+1080.08+907.03L993.075+907.03C987.742+947.03+973.242+978.03+949.575+1000.03C925.908+1022.03+893.075+1033.03+851.075+1033.03C824.408+1033.03+801.408+1027.7+782.075+1017.03C762.742+1006.36+747.075+992.197+735.075+974.53C723.075+956.864+714.242+936.697+708.575+914.03C702.908+891.364+700.075+868.03+700.075+844.03C700.075+818.03+702.742+792.864+708.075+768.53C713.408+744.197+722.242+722.697+734.575+704.03C746.908+685.364+763.408+670.364+784.075+659.03C804.742+647.697+830.408+642.03+861.075+642.03C897.075+642.03+925.742+651.03+947.075+669.03C968.408+687.03+982.408+712.364+989.075+745.03Z" opacity="0.902248" fill="#141414"/>
<path d="M1603.08+1096.03L1603.08+579.03L1518.08+579.03L1518.08+871.03C1518.08+894.364+1514.91+915.864+1508.58+935.53C1502.24+955.197+1492.74+972.364+1480.08+987.03C1467.41+1001.7+1451.58+1013.03+1432.58+1021.03C1413.58+1029.03+1391.08+1033.03+1365.08+1033.03C1332.41+1033.03+1306.74+1023.7+1288.08+1005.03C1269.41+986.364+1260.08+961.03+1260.08+929.03L1260.08+579.03L1175.08+579.03L1175.08+919.03C1175.08+947.03+1177.91+972.53+1183.58+995.53C1189.24+1018.53+1199.08+1038.36+1213.08+1055.03C1227.08+1071.7+1245.41+1084.53+1268.08+1093.53C1290.74+1102.53+1319.08+1107.03+1353.08+1107.03C1391.08+1107.03+1424.08+1099.53+1452.08+1084.53C1480.08+1069.53+1503.08+1046.03+1521.08+1014.03L1523.08+1014.03L1523.08+1096.03L1603.08+1096.03Z" opacity="0.902248" fill="#141414"/>
<path d="M1735.34+382.03L1735.34+1096.03L1820.34+1096.03L1820.34+1027.03L1822.34+1027.03C1831.68+1042.36+1843.18+1055.2+1856.84+1065.53C1870.51+1075.86+1885.01+1084.03+1900.34+1090.03C1915.68+1096.03+1931.18+1100.36+1946.84+1103.03C1962.51+1105.7+1976.68+1107.03+1989.34+1107.03C2028.68+1107.03+2063.18+1100.03+2092.84+1086.03C2122.51+1072.03+2147.18+1052.86+2166.84+1028.53C2186.51+1004.2+2201.18+975.697+2210.84+943.03C2220.51+910.364+2225.34+875.697+2225.34+839.03C2225.34+802.364+2220.34+767.697+2210.34+735.03C2200.34+702.364+2185.51+673.53+2165.84+648.53C2146.18+623.53+2121.51+603.697+2091.84+589.03C2062.18+574.364+2027.34+567.03+1987.34+567.03C1951.34+567.03+1918.34+573.53+1888.34+586.53C1858.34+599.53+1836.34+620.364+1822.34+649.03L1820.34+649.03L1820.34+382.03L1735.34+382.03ZM2135.34+833.03C2135.34+858.364+2132.68+883.03+2127.34+907.03C2122.01+931.03+2113.34+952.364+2101.34+971.03C2089.34+989.697+2073.51+1004.7+2053.84+1016.03C2034.18+1027.36+2009.68+1033.03+1980.34+1033.03C1951.01+1033.03+1926.01+1027.53+1905.34+1016.53C1884.68+1005.53+1867.84+991.03+1854.84+973.03C1841.84+955.03+1832.34+934.197+1826.34+910.53C1820.34+886.864+1817.34+862.364+1817.34+837.03C1817.34+813.03+1820.18+789.364+1825.84+766.03C1831.51+742.697+1840.68+721.864+1853.34+703.53C1866.01+685.197+1882.34+670.364+1902.34+659.03C1922.34+647.697+1946.68+642.03+1975.34+642.03C2002.68+642.03+2026.51+647.364+2046.84+658.03C2067.18+668.697+2083.84+683.03+2096.84+701.03C2109.84+719.03+2119.51+739.53+2125.84+762.53C2132.18+785.53+2135.34+809.03+2135.34+833.03Z" opacity="0.902248" fill="#141414"/>
<path d="M2388.61+838.03C2388.61+806.697+2392.78+778.864+2401.11+754.53C2409.44+730.197+2420.94+709.697+2435.61+693.03C2450.28+676.364+2467.44+663.697+2487.11+655.03C2506.78+646.364+2527.61+642.03+2549.61+642.03C2571.61+642.03+2592.44+646.364+2612.11+655.03C2631.78+663.697+2648.94+676.364+2663.61+693.03C2678.28+709.697+2689.78+730.197+2698.11+754.53C2706.44+778.864+2710.61+806.697+2710.61+838.03C2710.61+869.364+2706.44+897.197+2698.11+921.53C2689.78+945.864+2678.28+966.197+2663.61+982.53C2648.94+998.864+2631.78+1011.36+2612.11+1020.03C2592.44+1028.7+2571.61+1033.03+2549.61+1033.03C2527.61+1033.03+2506.78+1028.7+2487.11+1020.03C2467.44+1011.36+2450.28+998.864+2435.61+982.53C2420.94+966.197+2409.44+945.864+2401.11+921.53C2392.78+897.197+2388.61+869.364+2388.61+838.03ZM2298.61+838.03C2298.61+876.03+2303.94+911.364+2314.61+944.03C2325.28+976.697+2341.28+1005.2+2362.61+1029.53C2383.94+1053.86+2410.28+1072.86+2441.61+1086.53C2472.94+1100.2+2508.94+1107.03+2549.61+1107.03C2590.94+1107.03+2627.11+1100.2+2658.11+1086.53C2689.11+1072.86+2715.28+1053.86+2736.61+1029.53C2757.94+1005.2+2773.94+976.697+2784.61+944.03C2795.28+911.364+2800.61+876.03+2800.61+838.03C2800.61+800.03+2795.28+764.53+2784.61+731.53C2773.94+698.53+2757.94+669.864+2736.61+645.53C2715.28+621.197+2689.11+602.03+2658.11+588.03C2627.11+574.03+2590.94+567.03+2549.61+567.03C2508.94+567.03+2472.94+574.03+2441.61+588.03C2410.28+602.03+2383.94+621.197+2362.61+645.53C2341.28+669.864+2325.28+698.53+2314.61+731.53C2303.94+764.53+2298.61+800.03+2298.61+838.03Z" opacity="0.902248" fill="#141414"/>
</g>
<g opacity="0.895292">
<path d="M385.755+1227.13L574.755+710.13L485.755+710.13L344.755+1141.13L342.755+1141.13L197.755+710.13L102.755+710.13L294.755+1227.13L385.755+1227.13Z" opacity="0.895292" fill="#1c3ed3"/>
</g>
<g opacity="0.81811">
<path d="M2149.33+1198.09C2154.41+1191.06+2161.27+1185.4+2169.91+1181.1C2178.55+1176.81+2187.66+1174.66+2197.23+1174.66C2215+1174.66+2228.84+1181.79+2238.76+1196.04C2248.67+1210.3+2253.63+1229.05+2253.63+1252.29C2253.63+1275.83+2248.35+1295.48+2237.8+1311.25C2227.26+1327.02+2213.15+1334.91+2195.47+1334.91C2186+1334.91+2177.14+1332.54+2168.88+1327.81C2160.63+1323.07+2154.11+1316.8+2149.33+1308.98L2149.33+1330.96L2126.48+1330.96L2126.48+1124.27L2149.33+1124.27L2149.33+1198.09ZM2149.33+1220.8L2149.33+1284.23C2153.63+1292.82+2159.44+1300+2166.76+1305.76C2174.08+1311.52+2181.65+1314.4+2189.47+1314.4C2201.77+1314.4+2211.56+1308.54+2218.84+1296.82C2226.11+1285.11+2229.75+1270.7+2229.75+1253.61C2229.75+1236.03+2226.28+1221.78+2219.35+1210.84C2212.41+1199.9+2202.75+1194.43+2190.34+1194.43C2174.23+1194.43+2160.56+1203.22+2149.33+1220.8Z" opacity="0.81811" fill="#141414"/>
<path d="M2428.67+1255.37L2323.94+1255.37C2323.94+1272.65+2328.94+1286.91+2338.95+1298.14C2348.96+1309.37+2361.24+1314.99+2375.79+1314.99C2389.66+1314.99+2403.97+1312.5+2418.71+1307.52L2422.67+1325.83C2409.19+1331.88+2393.47+1334.91+2375.5+1334.91C2352.84+1334.91+2334.58+1327.64+2320.72+1313.08C2306.85+1298.53+2299.91+1278.9+2299.91+1254.2C2299.91+1229.98+2306.14+1210.67+2318.59+1196.26C2331.04+1181.86+2347.13+1174.66+2366.86+1174.66C2384.44+1174.66+2399.13+1181.35+2410.95+1194.73C2422.77+1208.1+2428.67+1225.93+2428.67+1248.19L2428.67+1255.37ZM2403.77+1236.77C2403.77+1224.85+2400.06+1214.82+2392.64+1206.66C2385.22+1198.51+2376.92+1194.43+2367.74+1194.43C2355.92+1194.43+2346.13+1198.34+2338.37+1206.15C2330.6+1213.96+2326.28+1224.17+2325.4+1236.77L2403.77+1236.77Z" opacity="0.81811" fill="#141414"/>
<path d="M2605.63+1324.07C2590.3+1331.1+2575.21+1334.62+2560.36+1334.62C2533.12+1334.62+2519.49+1320.21+2519.49+1291.4L2519.49+1198.09L2490.2+1198.09L2490.2+1178.32L2519.49+1178.32L2519.49+1136.57L2541.76+1136.57L2541.76+1178.32L2593.62+1178.32L2593.62+1198.09L2541.76+1198.09L2541.76+1285.4C2541.76+1294.68+2543.81+1301.88+2547.91+1307.01C2552.01+1312.13+2557.58+1314.7+2564.61+1314.7C2577.11+1314.7+2589.47+1311.91+2601.67+1306.35L2605.63+1324.07Z" opacity="0.81811" fill="#141414"/>
<path d="M2788+1330.96L2765.3+1330.96C2763.44+1324.8+2762.51+1316.6+2762.51+1306.35C2749.52+1325.39+2731.85+1334.91+2709.48+1334.91C2698.16+1334.91+2688.17+1330.88+2679.53+1322.83C2670.89+1314.77+2666.56+1304.39+2666.56+1291.7C2666.56+1284.18+2668.08+1277.54+2671.11+1271.78C2674.13+1266.01+2678.58+1261.16+2684.44+1257.2C2690.3+1253.25+2697.42+1250.12+2705.82+1247.83C2714.22+1245.53+2724.18+1243.94+2735.71+1243.06L2761.34+1241.01L2761.34+1233.69C2761.34+1207.52+2749.13+1194.43+2724.72+1194.43C2718.96+1194.43+2711.66+1195.68+2702.82+1198.17C2693.98+1200.66+2686.39+1203.61+2680.04+1207.03L2674.04+1190.62C2694.84+1179.98+2714.17+1174.66+2732.04+1174.66C2766.81+1174.66+2784.19+1193.06+2784.19+1229.88L2784.19+1295.51C2784.19+1308.79+2785.46+1320.6+2788+1330.96ZM2761.34+1285.69L2761.34+1258.01C2740.73+1259.86+2726.6+1261.6+2718.93+1263.21C2711.27+1264.82+2704.63+1267.82+2699.01+1272.22C2693.4+1276.61+2690.59+1282.57+2690.59+1290.09C2690.59+1296.92+2692.98+1302.44+2697.77+1306.64C2702.55+1310.84+2708.65+1312.94+2716.08+1312.94C2724.18+1312.94+2732.24+1310.52+2740.25+1305.69C2748.25+1300.85+2755.29+1294.19+2761.34+1285.69Z" opacity="0.81811" fill="#141414"/>
</g>
</g>
</svg>
