<?xml version="1.0" encoding="UTF-8" standalone="no"?> <!-- Created with Vectornator for iOS (http://vectornator.io/) --><!DOCTYPE svg PUBLIC "-//W3C//DTD SVG 1.1//EN" "http://www.w3.org/Graphics/SVG/1.1/DTD/svg11.dtd">
<svg height="100%" style="fill-rule:nonzero;clip-rule:evenodd;stroke-linecap:round;stroke-linejoin:round;" xmlns:xlink="http://www.w3.org/1999/xlink" xmlns="http://www.w3.org/2000/svg" xml:space="preserve" width="100%" xmlns:vectornator="http://vectornator.io" version="1.1" viewBox="0 0 1024 1024">
<metadata>
<vectornator:setting key="DimensionsVisible" value="1"/>
<vectornator:setting key="PencilOnly" value="0"/>
<vectornator:setting key="SnapToPoints" value="0"/>
<vectornator:setting key="OutlineMode" value="0"/>
<vectornator:setting key="CMYKEnabledKey" value="0"/>
<vectornator:setting key="RulersVisible" value="1"/>
<vectornator:setting key="SnapToEdges" value="0"/>
<vectornator:setting key="GuidesVisible" value="1"/>
<vectornator:setting key="DisplayWhiteBackground" value="0"/>
<vectornator:setting key="doHistoryDisabled" value="0"/>
<vectornator:setting key="SnapToGuides" value="1"/>
<vectornator:setting key="TimeLapseWatermarkDisabled" value="0"/>
<vectornator:setting key="Units" value="Pixels"/>
<vectornator:setting key="DynamicGuides" value="0"/>
<vectornator:setting key="IsolateActiveLayer" value="0"/>
<vectornator:setting key="SnapToGrid" value="0"/>
</metadata>
<defs>
<linearGradient y1="323.459" id="LinearGradient" x1="205.367" y2="323.459" x2="245.578" gradientUnits="userSpaceOnUse" gradientTransform="matrix(1 0 0 1 0 0)">
<stop stop-color="#371adf" offset="1"/>
<stop stop-color="#ffa1a7" offset="1"/>
</linearGradient>
<linearGradient y1="323.459" id="LinearGradient_2" x1="205.367" y2="323.459" x2="245.578" gradientUnits="userSpaceOnUse" gradientTransform="matrix(1 0 0 1 0 0)">
<stop stop-color="#371adf" offset="1"/>
<stop stop-color="#ffa1a7" offset="1"/>
</linearGradient>
<linearGradient y1="323.459" id="LinearGradient_3" x1="205.367" y2="323.459" x2="245.578" gradientUnits="userSpaceOnUse" gradientTransform="matrix(1 0 0 1 0 0)">
<stop stop-color="#371adf" offset="1"/>
<stop stop-color="#ffa1a7" offset="1"/>
</linearGradient>
<linearGradient y1="323.459" id="LinearGradient_4" x1="205.367" y2="323.459" x2="245.578" gradientUnits="userSpaceOnUse" gradientTransform="matrix(1 0 0 1 0 0)">
<stop stop-color="#371adf" offset="1"/>
<stop stop-color="#ffa1a7" offset="1"/>
</linearGradient>
<linearGradient y1="441.598" id="LinearGradient_5" x1="431.292" y2="441.598" x2="456.792" gradientUnits="userSpaceOnUse" gradientTransform="matrix(1 0 0 1 0 0)">
<stop stop-color="#030012" offset="1"/>
<stop stop-color="#000000" offset="1"/>
</linearGradient>
<linearGradient y1="493.36" id="LinearGradient_6" x1="1378.84" y2="493.36" x2="1408.31" gradientUnits="userSpaceOnUse" gradientTransform="matrix(1 0 0 1 0 0)">
<stop stop-color="#000000" offset="1"/>
<stop stop-color="#ffa1a7" offset="1"/>
</linearGradient>
<linearGradient y1="493.36" id="LinearGradient_7" x1="1378.84" y2="493.36" x2="1408.31" gradientUnits="userSpaceOnUse" gradientTransform="matrix(1 0 0 1 0 0)">
<stop stop-color="#000000" offset="1"/>
<stop stop-color="#ffa1a7" offset="1"/>
</linearGradient>
<linearGradient y1="493.36" id="LinearGradient_8" x1="1378.84" y2="493.36" x2="1408.31" gradientUnits="userSpaceOnUse" gradientTransform="matrix(1 0 0 1 0 0)">
<stop stop-color="#000000" offset="1"/>
<stop stop-color="#ffa1a7" offset="1"/>
</linearGradient>
<linearGradient y1="493.36" id="LinearGradient_9" x1="1378.84" y2="493.36" x2="1408.31" gradientUnits="userSpaceOnUse" gradientTransform="matrix(1 0 0 1 0 0)">
<stop stop-color="#000000" offset="1"/>
<stop stop-color="#ffa1a7" offset="1"/>
</linearGradient>
<linearGradient y1="784.501" id="LinearGradient_10" x1="319.098" y2="842.686" x2="217.383" gradientUnits="userSpaceOnUse" gradientTransform="matrix(1 0 0 1 0 0)">
<stop stop-color="#000000" offset="1"/>
<stop stop-color="#ffa1a7" offset="1"/>
</linearGradient>
<linearGradient y1="784.501" id="LinearGradient_11" x1="319.098" y2="842.686" x2="217.383" gradientUnits="userSpaceOnUse" gradientTransform="matrix(1 0 0 1 0 0)">
<stop stop-color="#000000" offset="1"/>
<stop stop-color="#ffa1a7" offset="1"/>
</linearGradient>
<linearGradient y1="784.501" id="LinearGradient_12" x1="319.098" y2="842.686" x2="217.383" gradientUnits="userSpaceOnUse" gradientTransform="matrix(1 0 0 1 0 0)">
<stop stop-color="#000000" offset="1"/>
<stop stop-color="#ffa1a7" offset="1"/>
</linearGradient>
<linearGradient y1="784.501" id="LinearGradient_13" x1="319.098" y2="842.686" x2="217.383" gradientUnits="userSpaceOnUse" gradientTransform="matrix(1 0 0 1 0 0)">
<stop stop-color="#000000" offset="1"/>
<stop stop-color="#ffa1a7" offset="1"/>
</linearGradient>
</defs>
<g id="Layer 1" vectornator:layerName="Layer 1">
<g opacity="0.893897">
<path d="M297.44+590.043C282.88+590.043+269.86+586.59+258.38+579.683C246.9+572.776+237.847+563.443+231.22+551.683C224.594+539.923+221.28+526.67+221.28+511.923C221.28+496.99+224.36+483.643+230.52+471.883C236.68+460.123+245.174+450.836+256+444.023C266.827+437.21+279.24+433.803+293.24+433.803C305.187+433.803+316.107+436.09+326+440.663C335.894+445.236+344.48+452.19+351.76+461.523C353.254+463.39+353.814+465.35+353.44+467.403C353.067+469.456+351.854+471.136+349.8+472.443C348.12+473.75+346.254+474.263+344.2+473.983C342.147+473.703+340.374+472.63+338.88+470.763C326.934+456.576+311.72+449.483+293.24+449.483C282.227+449.483+272.567+452.19+264.26+457.603C255.954+463.016+249.514+470.39+244.94+479.723C240.367+489.056+238.08+499.79+238.08+511.923C238.08+523.683+240.6+534.276+245.64+543.703C250.68+553.13+257.634+560.596+266.5+566.103C275.367+571.61+285.68+574.363+297.44+574.363C305.094+574.363+312.327+573.243+319.14+571.003C325.954+568.763+331.88+565.31+336.92+560.643C338.6+559.15+340.467+558.31+342.52+558.123C344.574+557.936+346.347+558.59+347.84+560.083C349.707+561.763+350.687+563.676+350.78+565.823C350.874+567.97+350.08+569.79+348.4+571.283C334.774+583.79+317.787+590.043+297.44+590.043Z" opacity="0.893897" fill="url(#LinearGradient)"/>
<path d="M463.76+590.323C450.32+590.323+438.28+587.57+427.64+582.063C417+576.556+408.554+568.483+402.3+557.843C396.047+547.203+392.92+534.23+392.92+518.923L392.92+443.603C392.92+441.176+393.714+439.17+395.3+437.583C396.887+435.996+398.894+435.203+401.32+435.203C403.747+435.203+405.754+435.996+407.34+437.583C408.927+439.17+409.72+441.176+409.72+443.603L409.72+518.923C409.72+531.056+412.1+541.183+416.86+549.303C421.62+557.423+428.06+563.49+436.18+567.503C444.3+571.516+453.494+573.523+463.76+573.523C473.84+573.523+482.894+571.563+490.92+567.643C498.947+563.723+505.294+558.45+509.96+551.823C514.627+545.196+516.96+537.683+516.96+529.283L530.96+529.283C530.214+540.856+526.76+551.263+520.6+560.503C514.44+569.743+506.46+577.023+496.66+582.343C486.86+587.663+475.894+590.323+463.76+590.323ZM525.36+588.363C522.934+588.363+520.927+587.57+519.34+585.983C517.754+584.396+516.96+582.39+516.96+579.963L516.96+443.603C516.96+440.99+517.754+438.936+519.34+437.443C520.927+435.95+522.934+435.203+525.36+435.203C527.974+435.203+530.027+435.95+531.52+437.443C533.014+438.936+533.76+440.99+533.76+443.603L533.76+579.963C533.76+582.39+533.014+584.396+531.52+585.983C530.027+587.57+527.974+588.363+525.36+588.363Z" opacity="0.893897" fill="url(#LinearGradient_2)"/>
<path d="M662.28+590.043C647.72+590.043+634.56+586.683+622.8+579.963C611.04+573.243+601.754+564.096+594.94+552.523C588.127+540.95+584.534+527.883+584.16+513.323L584.16+378.083C584.16+375.47+584.954+373.416+586.54+371.923C588.127+370.43+590.134+369.683+592.56+369.683C595.174+369.683+597.227+370.43+598.72+371.923C600.214+373.416+600.96+375.47+600.96+378.083L600.96+465.443C606.934+455.736+615.287+447.99+626.02+442.203C636.754+436.416+648.84+433.523+662.28+433.523C677.214+433.523+690.607+436.93+702.46+443.743C714.314+450.556+723.647+459.843+730.46+471.603C737.274+483.363+740.68+496.71+740.68+511.643C740.68+526.576+737.274+539.97+730.46+551.823C723.647+563.676+714.314+573.01+702.46+579.823C690.607+586.636+677.214+590.043+662.28+590.043ZM662.28+574.363C674.04+574.363+684.54+571.61+693.78+566.103C703.02+560.596+710.347+553.13+715.76+543.703C721.174+534.276+723.88+523.59+723.88+511.643C723.88+499.696+721.174+489.056+715.76+479.723C710.347+470.39+703.02+462.97+693.78+457.463C684.54+451.956+674.04+449.203+662.28+449.203C650.707+449.203+640.254+451.956+630.92+457.463C621.587+462.97+614.26+470.39+608.94+479.723C603.62+489.056+600.96+499.696+600.96+511.643C600.96+523.59+603.62+534.276+608.94+543.703C614.26+553.13+621.587+560.596+630.92+566.103C640.254+571.61+650.707+574.363+662.28+574.363Z" opacity="0.893897" fill="url(#LinearGradient_3)"/>
<path d="M852.68+590.043C837.747+590.043+824.354+586.636+812.5+579.823C800.647+573.01+791.314+563.676+784.5+551.823C777.687+539.97+774.28+526.67+774.28+511.923C774.28+496.99+777.687+483.596+784.5+471.743C791.314+459.89+800.647+450.556+812.5+443.743C824.354+436.93+837.747+433.523+852.68+433.523C867.614+433.523+880.96+436.93+892.72+443.743C904.48+450.556+913.767+459.89+920.58+471.743C927.394+483.596+930.8+496.99+930.8+511.923C930.8+526.67+927.394+539.97+920.58+551.823C913.767+563.676+904.48+573.01+892.72+579.823C880.96+586.636+867.614+590.043+852.68+590.043ZM852.68+574.363C864.44+574.363+874.94+571.61+884.18+566.103C893.42+560.596+900.7+553.13+906.02+543.703C911.34+534.276+914+523.59+914+511.643C914+499.883+911.34+489.29+906.02+479.863C900.7+470.436+893.42+462.97+884.18+457.463C874.94+451.956+864.44+449.203+852.68+449.203C841.107+449.203+830.654+451.956+821.32+457.463C811.987+462.97+804.614+470.436+799.2+479.863C793.787+489.29+791.08+499.976+791.08+511.923C791.08+523.683+793.787+534.276+799.2+543.703C804.614+553.13+811.987+560.596+821.32+566.103C830.654+571.61+841.107+574.363+852.68+574.363Z" opacity="0.893897" fill="url(#LinearGradient_4)"/>
</g>
<g opacity="0.897773">
<path d="M124.789+629.55C121.242+629.55+118.629+627.59+116.949+623.67L53.1091+487.03C52.3625+484.976+52.3625+482.97+53.1091+481.01C53.8558+479.05+55.2558+477.603+57.3091+476.67C59.3625+475.736+61.3691+475.643+63.3291+476.39C65.2891+477.136+66.7358+478.536+67.6691+480.59L130.389+616.11L120.029+616.11L181.629+480.31C182.562+478.256+184.102+476.856+186.249+476.11C188.396+475.363+190.496+475.456+192.549+476.39C194.602+477.323+196.049+478.77+196.889+480.73C197.729+482.69+197.682+484.696+196.749+486.75L133.749+623.67C131.882+627.59+128.896+629.55+124.789+629.55Z" opacity="0.897773" fill="url(#LinearGradient_5)"/>
</g>
<g opacity="0.556688">
<path d="M1398.21+536.03C1397.74+536.03+1397.34+535.874+1397.03+535.562C1396.72+535.251+1396.56+534.856+1396.56+534.38L1396.56+493.075L1399.86+493.075L1399.86+534.38C1399.86+534.856+1399.71+535.251+1399.4+535.562C1399.08+535.874+1398.69+536.03+1398.21+536.03ZM1382.65+496.045C1382.21+496.045+1381.85+495.907+1381.58+495.632C1381.3+495.357+1381.16+495+1381.16+494.56C1381.16+494.12+1381.3+493.762+1381.58+493.487C1381.85+493.212+1382.21+493.075+1382.65+493.075L1413.78+493.075C1414.22+493.075+1414.58+493.212+1414.85+493.487C1415.13+493.762+1415.26+494.12+1415.26+494.56C1415.26+495+1415.13+495.357+1414.85+495.632C1414.58+495.907+1414.22+496.045+1413.78+496.045L1382.65+496.045Z" opacity="0.556688" fill="url(#LinearGradient_6)"/>
<path d="M1398.6+597.63C1395.7+597.63+1393.13+596.979+1390.87+595.677C1388.62+594.376+1386.85+592.57+1385.56+590.26C1384.28+587.95+1383.64+585.31+1383.64+582.34C1383.64+579.333+1384.24+576.684+1385.45+574.392C1386.66+572.101+1388.33+570.295+1390.46+568.975C1392.58+567.655+1395.02+566.995+1397.77+566.995C1400.49+566.995+1402.89+567.627+1404.98+568.892C1407.07+570.157+1408.7+571.899+1409.87+574.117C1411.05+576.336+1411.63+578.893+1411.63+581.79C1411.63+582.266+1411.49+582.642+1411.19+582.917C1410.9+583.192+1410.51+583.33+1410.04+583.33L1385.84+583.33L1385.84+580.47L1410.92+580.47L1408.5+582.285C1408.57+579.901+1408.17+577.793+1407.29+575.96C1406.41+574.126+1405.15+572.687+1403.52+571.642C1401.89+570.597+1399.97+570.075+1397.77+570.075C1395.68+570.075+1393.82+570.597+1392.19+571.642C1390.56+572.687+1389.28+574.126+1388.34+575.96C1387.41+577.793+1386.94+579.92+1386.94+582.34C1386.94+584.723+1387.43+586.831+1388.42+588.665C1389.41+590.498+1390.79+591.937+1392.55+592.982C1394.31+594.027+1396.32+594.55+1398.6+594.55C1400.03+594.55+1401.47+594.302+1402.92+593.807C1404.36+593.312+1405.51+592.661+1406.35+591.855C1406.65+591.561+1407+591.406+1407.43+591.387C1407.85+591.369+1408.2+591.488+1408.5+591.745C1408.9+592.075+1409.11+592.441+1409.13+592.845C1409.15+593.248+1408.97+593.615+1408.61+593.945C1407.43+595.008+1405.9+595.888+1404.02+596.585C1402.13+597.281+1400.32+597.63+1398.6+597.63Z" opacity="0.556688" fill="url(#LinearGradient_7)"/>
<path d="M1406.19+658.68C1405.75+658.68+1405.4+658.597+1405.14+658.432C1404.89+658.267+1404.61+658.001+1404.32+657.635L1394.86+645.095L1393.48+644.05L1383.86+631.345C1383.56+630.978+1383.44+630.584+1383.47+630.162C1383.51+629.741+1383.67+629.374+1383.97+629.062C1384.26+628.751+1384.65+628.595+1385.12+628.595C1385.6+628.595+1386+628.76+1386.33+629.09L1395.52+641.3L1397+642.455L1407.18+655.985C1407.65+656.571+1407.83+657.066+1407.7+657.47C1407.57+657.873+1407.34+658.176+1407.01+658.377C1406.68+658.579+1406.41+658.68+1406.19+658.68ZM1383.91+658.68C1383.44+658.68+1383.05+658.533+1382.76+658.24C1382.46+657.946+1382.3+657.589+1382.26+657.167C1382.23+656.746+1382.35+656.351+1382.65+655.985L1393.32+642.73L1395.24+645.15L1385.07+658.185C1384.85+658.515+1384.46+658.68+1383.91+658.68ZM1396.29+644.27L1394.31+641.85L1404.32+629.585C1404.61+629.255+1404.9+629.007+1405.17+628.842C1405.45+628.677+1405.73+628.595+1406.02+628.595C1406.54+628.595+1406.92+628.751+1407.18+629.062C1407.43+629.374+1407.56+629.741+1407.56+630.162C1407.56+630.584+1407.42+630.978+1407.12+631.345L1396.29+644.27Z" opacity="0.556688" fill="url(#LinearGradient_8)"/>
<path d="M1397.61+720.005C1395.59+719.968+1393.79+719.501+1392.22+718.602C1390.64+717.704+1389.41+716.457+1388.53+714.862C1387.65+713.267+1387.21+711.461+1387.21+709.445L1387.21+682.055C1387.21+681.541+1387.37+681.129+1387.68+680.817C1387.99+680.506+1388.39+680.35+1388.86+680.35C1389.38+680.35+1389.79+680.506+1390.1+680.817C1390.41+681.129+1390.57+681.541+1390.57+682.055L1390.57+709.445C1390.57+711.571+1391.23+713.304+1392.55+714.642C1393.87+715.981+1395.57+716.65+1397.66+716.65L1398.87+716.65C1399.39+716.65+1399.8+716.806+1400.11+717.117C1400.42+717.429+1400.58+717.841+1400.58+718.355C1400.58+718.831+1400.42+719.226+1400.11+719.537C1399.8+719.849+1399.39+720.005+1398.87+720.005L1397.61+720.005ZM1382.92+693.99C1382.48+693.99+1382.13+693.852+1381.85+693.577C1381.58+693.302+1381.44+692.945+1381.44+692.505C1381.44+692.065+1381.58+691.707+1381.85+691.432C1382.13+691.157+1382.48+691.02+1382.92+691.02L1397.83+691.02C1398.27+691.02+1398.63+691.157+1398.9+691.432C1399.18+691.707+1399.31+692.065+1399.31+692.505C1399.31+692.945+1399.18+693.302+1398.9+693.577C1398.63+693.852+1398.27+693.99+1397.83+693.99L1382.92+693.99Z" opacity="0.556688" fill="url(#LinearGradient_9)"/>
</g>
<g opacity="0.893897">
<path d="M713.833+608.173L713.833+632.65C718.286+626.849+723.662+623.949+729.961+623.949C735.352+623.949+739.966+625.905+743.804+629.816C747.642+633.727+749.561+638.524+749.561+644.208C749.561+649.95+747.62+654.813+743.738+658.798C739.856+662.782+735.264+664.774+729.961+664.774C723.516+664.774+718.14+661.874+713.833+656.073L713.833+663.324L705.176+663.324C704.297+663.324+703.667+663.148+703.286+662.797C702.905+662.445+702.715+662.006+702.715+661.478C702.715+660.922+702.905+660.475+703.286+660.138C703.667+659.801+704.297+659.633+705.176+659.633L710.142+659.633L710.142+611.908L705.176+611.908C704.297+611.908+703.667+611.732+703.286+611.381C702.905+611.029+702.715+610.575+702.715+610.018C702.715+609.491+702.905+609.052+703.286+608.7C703.667+608.348+704.297+608.173+705.176+608.173L713.833+608.173ZM745.869+644.384C745.869+639.725+744.273+635.778+741.079+632.54C737.886+629.303+734.151+627.684+729.873+627.684C725.596+627.684+721.861+629.303+718.667+632.54C715.474+635.778+713.877+639.725+713.877+644.384C713.877+649.042+715.474+652.99+718.667+656.227C721.861+659.464+725.596+661.083+729.873+661.083C734.151+661.083+737.886+659.464+741.079+656.227C744.273+652.99+745.869+649.042+745.869+644.384Z" opacity="0.893897" fill="url(#LinearGradient_10)"/>
<path d="M801.724+645.175L764.107+645.175C764.751+649.95+766.751+653.795+770.105+656.71C773.46+659.625+777.613+661.083+782.564+661.083C785.318+661.083+788.203+660.629+791.221+659.721C794.238+658.812+796.699+657.611+798.604+656.117C799.16+655.678+799.644+655.458+800.054+655.458C800.523+655.458+800.933+655.641+801.284+656.007C801.636+656.373+801.812+656.806+801.812+657.304C801.812+657.802+801.577+658.285+801.109+658.754C799.702+660.219+797.205+661.588+793.616+662.863C790.027+664.137+786.343+664.774+782.564+664.774C776.236+664.774+770.955+662.702+766.721+658.556C762.488+654.41+760.371+649.393+760.371+643.505C760.371+638.143+762.356+633.544+766.326+629.706C770.296+625.868+775.21+623.949+781.07+623.949C787.105+623.949+792.071+625.919+795.967+629.86C799.863+633.8+801.782+638.905+801.724+645.175ZM797.988+641.439C797.256+637.367+795.33+634.056+792.21+631.508C789.09+628.959+785.376+627.684+781.07+627.684C776.763+627.684+773.057+628.944+769.951+631.464C766.846+633.983+764.912+637.308+764.151+641.439L797.988+641.439Z" opacity="0.893897" fill="url(#LinearGradient_11)"/>
<path d="M828.179+625.267L848.218+625.267C849.097+625.267+849.727+625.443+850.108+625.795C850.488+626.146+850.679+626.6+850.679+627.157C850.679+627.684+850.488+628.124+850.108+628.475C849.727+628.827+849.097+629.003+848.218+629.003L828.179+629.003L828.179+653.568C828.179+655.707+829.036+657.494+830.75+658.93C832.464+660.365+834.976+661.083+838.286+661.083C840.777+661.083+843.472+660.709+846.372+659.962C849.273+659.215+851.529+658.373+853.14+657.435C853.726+657.055+854.209+656.864+854.59+656.864C855.059+656.864+855.469+657.047+855.821+657.413C856.172+657.78+856.348+658.212+856.348+658.71C856.348+659.149+856.157+659.559+855.777+659.94C854.839+660.907+852.561+661.954+848.943+663.082C845.325+664.21+841.861+664.774+838.55+664.774C834.243+664.774+830.816+663.764+828.267+661.742C825.718+659.721+824.444+656.996+824.444+653.568L824.444+629.003L817.632+629.003C816.753+629.003+816.123+628.827+815.742+628.475C815.362+628.124+815.171+627.67+815.171+627.113C815.171+626.586+815.362+626.146+815.742+625.795C816.123+625.443+816.753+625.267+817.632+625.267L824.444+625.267L824.444+614.369C824.444+613.49+824.619+612.86+824.971+612.479C825.322+612.098+825.762+611.908+826.289+611.908C826.846+611.908+827.3+612.098+827.652+612.479C828.003+612.86+828.179+613.49+828.179+614.369L828.179+625.267Z" opacity="0.893897" fill="url(#LinearGradient_12)"/>
<path d="M900.381+663.324L900.381+658.007C895.02+662.518+889.292+664.774+883.198+664.774C878.775+664.774+875.318+663.654+872.827+661.412C870.337+659.171+869.092+656.425+869.092+653.173C869.092+649.598+870.733+646.478+874.014+643.812C877.295+641.146+882.085+639.813+888.384+639.813C890.083+639.813+891.929+639.923+893.921+640.143C895.913+640.363+898.067+640.707+900.381+641.176L900.381+635.199C900.381+633.178+899.444+631.42+897.569+629.926C895.694+628.431+892.881+627.684+889.131+627.684C886.26+627.684+882.232+628.519+877.046+630.189C876.109+630.482+875.508+630.629+875.244+630.629C874.776+630.629+874.373+630.453+874.036+630.101C873.699+629.75+873.53+629.31+873.53+628.783C873.53+628.285+873.677+627.889+873.97+627.597C874.38+627.157+876.035+626.556+878.936+625.795C883.506+624.564+886.963+623.949+889.307+623.949C893.965+623.949+897.598+625.099+900.205+627.399C902.813+629.699+904.116+632.299+904.116+635.199L904.116+659.633L909.038+659.633C909.947+659.633+910.591+659.801+910.972+660.138C911.353+660.475+911.543+660.922+911.543+661.478C911.543+662.006+911.353+662.445+910.972+662.797C910.591+663.148+909.947+663.324+909.038+663.324L900.381+663.324ZM900.381+644.955C898.653+644.457+896.822+644.091+894.888+643.856C892.954+643.622+890.918+643.505+888.78+643.505C883.418+643.505+879.229+644.662+876.211+646.976C873.926+648.705+872.783+650.77+872.783+653.173C872.783+655.399+873.655+657.274+875.398+658.798C877.141+660.321+879.683+661.083+883.023+661.083C886.216+661.083+889.182+660.446+891.922+659.171C894.661+657.897+897.481+655.868+900.381+653.085L900.381+644.955Z" opacity="0.893897" fill="url(#LinearGradient_13)"/>
</g>
</g>
</svg>
