<svg xmlns="http://www.w3.org/2000/svg" xmlns:xlink="http://www.w3.org/1999/xlink" xmlns:lucid="lucid" width="1870.87" height="1322.83"><g transform="translate(0 0)" lucid:page-tab-id="0_0"><path d="M329.33 494.33c0-3.3 2.7-6 6-6h120c3.32 0 6 2.7 6 6v87.17c0 3.3-2.68 6-6 6h-120c-3.3 0-6-2.7-6-6z" stroke="#5e5e5e" stroke-width="2" fill="#fff"/><use xlink:href="#a" transform="matrix(1,0,0,1,349.33333333333326,488.3333333333333) translate(12.771604938271615 43.77777777777778)"/><use xlink:href="#b" transform="matrix(1,0,0,1,349.33333333333326,488.3333333333333) translate(40.81481481481482 62.44444444444444)"/><path d="M358.67 565.17c0-3.32 2.68-6 6-6h120c3.3 0 6 2.68 6 6v87.16c0 3.32-2.7 6-6 6h-120c-3.32 0-6-2.68-6-6z" stroke="#5e5e5e" stroke-width="2" fill="#fff"/><use xlink:href="#a" transform="matrix(1,0,0,1,378.66666666666663,559.1666666666666) translate(12.771604938271615 43.77777777777778)"/><use xlink:href="#c" transform="matrix(1,0,0,1,378.66666666666663,559.1666666666666) translate(40.81481481481482 62.44444444444444)"/><path d="M769.33 622.92c0 35.2-29.55 63.75-66 63.75s-66-28.55-66-63.75 29.55-63.75 66-63.75 66 28.54 66 63.75z" stroke="#5e5e5e" stroke-width="2" fill="#fff"/><use xlink:href="#d" transform="matrix(1,0,0,1,657.3333333333334,559.1666666666666) translate(-7.947530864197525 48.44444444444444)"/><use xlink:href="#e" transform="matrix(1,0,0,1,657.3333333333334,559.1666666666666) translate(40.81481481481482 67.11111111111111)"/><use xlink:href="#f" transform="matrix(1,0,0,1,657.3333333333334,559.1666666666666) translate(-4.058641975308632 85.77777777777777)"/><path d="M463.33 537.92h124c3.32 0 6 2.68 6 6v73c0 3.3 2.7 6 6 6h18.5" stroke="#5e5e5e" stroke-width="2" fill="none"/><path d="M463.36 538.92h-1.03v-2h1.03z" fill="#5e5e5e"/><path d="M633.1 622.92l-14.27 4.63v-9.27z" stroke="#5e5e5e" stroke-width="2" fill="#5e5e5e"/><path d="M492.67 608.75h50.66c3.32 0 6 2.7 6 6v16.76c0 3.32 2.7 6 6 6h64.25" stroke="#5e5e5e" stroke-width="2" fill="none"/><path d="M492.7 609.75h-1.03v-2h1.02z" fill="#5e5e5e"/><path d="M634.85 637.5l-14.27 4.65v-9.28z" stroke="#5e5e5e" stroke-width="2" fill="#5e5e5e"/><path d="M551.33 750.42h39.55c3.3 0 6-2.7 6-6v-86.6c0-3.3 2.68-6 6-6h22.04" stroke="#5e5e5e" stroke-width="2" fill="none"/><path d="M551.36 751.42h-1.03v-2h1.03z" fill="#5e5e5e"/><path d="M640.18 651.83l-14.26 4.64v-9.27z" stroke="#5e5e5e" stroke-width="2" fill="#5e5e5e"/><path d="M703.33 688.67V709c0 3.3 2.7 6 6 6h56.17" stroke="#5e5e5e" stroke-width="2" fill="none"/><path d="M703.33 687.67l1-.03v1.05h-2v-1.07z" fill="#5e5e5e"/><path d="M780.76 715l-14.26 4.64v-9.28z" stroke="#5e5e5e" stroke-width="2" fill="#5e5e5e"/><path d="M829 708.98h62.2c1.54 0 2.8-1.26 2.8-2.8" stroke="#5e5e5e" stroke-width="2" fill="none"/><path d="M829.03 709.98H828v-2h1.03z" fill="#5e5e5e"/><path d="M894 690.9l4.64 14.27h-9.28z" stroke="#5e5e5e" stroke-width="2" fill="#5e5e5e"/><path d="M960 622.92c0 35.2-29.55 63.75-66 63.75s-66-28.55-66-63.75 29.55-63.75 66-63.75 66 28.54 66 63.75z" stroke="#5e5e5e" stroke-width="2" fill="#fff"/><use xlink:href="#g" transform="matrix(1,0,0,1,848,559.1666666666666) translate(7.629629629629633 39.111111111111114)"/><use xlink:href="#h" transform="matrix(1,0,0,1,848,559.1666666666666) translate(33.03703703703704 57.77777777777778)"/><use xlink:href="#i" transform="matrix(1,0,0,1,848,559.1666666666666) translate(11.929012345679013 76.44444444444444)"/><use xlink:href="#j" transform="matrix(1,0,0,1,848,559.1666666666666) translate(17.956790123456795 95.1111111111111)"/><path d="M894 557.17V466c0-3.3-2.7-6-6-6H306c-3.3 0-6 2.7-6 6v65.92c0 3.3 2.7 6 6 6h3.83" stroke="#5e5e5e" stroke-width="2" fill="none"/><path d="M895 558.2l-1-.03-1 .02v-1.06h2z" fill="#5e5e5e"/><path d="M325.1 537.92l-14.27 4.63v-9.27z" stroke="#5e5e5e" stroke-width="2" fill="#5e5e5e"/><path d="M300 522.3v80.45c0 3.3 2.7 6 6 6h33.16M300 522.33v-1.03" stroke="#5e5e5e" stroke-width="2" fill="none"/><path d="M354.43 608.75l-14.27 4.64v-9.3z" stroke="#5e5e5e" stroke-width="2" fill="#5e5e5e"/><path d="M300 603.64v140.78c0 3.3 2.7 6 6 6h91.83M300 603.67v-1.03" stroke="#5e5e5e" stroke-width="2" fill="none"/><path d="M413.1 750.42l-14.27 4.63v-9.27z" stroke="#5e5e5e" stroke-width="2" fill="#5e5e5e"/><path d="M388 636c0-3.3 2.7-6 6-6h120c3.3 0 6 2.7 6 6v87.17c0 3.3-2.7 6-6 6H394c-3.3 0-6-2.7-6-6z" fill="#fff"/><path d="M392.5 630.4l1.5-.4h2m8 0h4m8 0h4m8 0h4m8 0h4m8 0h4m8 0h4m8 0h4m8 0h4m8 0h4m8 0h2l1.5.4m4.1 4.1l.4 1.5v2.08m0 8.3v4.15m0 8.3v4.15m0 8.3v4.15m0 8.3v4.15m0 8.3v4.16m0 8.3v4.15m0 8.3v2.07l-.4 1.5m-4.1 4.1l-1.5.4h-2m-8 0h-4m-8 0h-4m-8 0h-4m-8 0h-4m-8 0h-4m-8 0h-4m-8 0h-4m-8 0h-4m-8 0h-4m-8 0h-2l-1.5-.4m-4.1-4.1l-.4-1.5v-2.08m0-8.3v-4.16m0-8.3v-4.15m0-8.32v-4.15m0-8.3v-4.15m0-8.3v-4.15m0-8.3v-4.15m0-8.3V636l.4-1.5" stroke="#5e5e5e" stroke-width="2" fill="none"/><path d="M417.33 706.83c0-3.3 2.7-6 6-6h120c3.32 0 6 2.7 6 6V794c0 3.3-2.68 6-6 6h-120c-3.3 0-6-2.7-6-6z" stroke="#5e5e5e" stroke-width="2" fill="#fff"/><use xlink:href="#a" transform="matrix(1,0,0,1,437.33333333333337,700.8333333333333) translate(12.771604938271615 43.77777777777778)"/><use xlink:href="#k" transform="matrix(1,0,0,1,437.33333333333337,700.8333333333333) translate(41.26851851851852 62.44444444444444)"/><path d="M784 694.4v41.2c0 4.26 9.86 7.73 22 7.73V694.4h-22z" stroke="#000" stroke-opacity="0" stroke-width="3" fill="#5e5e5e"/><path d="M805.7 743.33h.3c12.14 0 22-3.47 22-7.73v-41.2h-22.3v48.93z" stroke="#000" stroke-opacity="0" stroke-width="3" fill="#5e5e5e"/><path d="M805.7 743.33h.3c12.14 0 22-3.47 22-7.73v-41.2h-22.3v48.93z" stroke="#000" stroke-opacity="0" stroke-width="3" fill="#ffeb97" fill-opacity=".15"/><path d="M828 694.4c0 4.28-9.86 7.75-22 7.75s-22-3.47-22-7.74 9.86-7.73 22-7.73 22 3.46 22 7.74" stroke="#000" stroke-opacity="0" stroke-width="3" fill="#fff"/><path d="M823.5 693.96c0 2.82-7.84 5.1-17.5 5.1s-17.5-2.28-17.5-5.1 7.84-5.1 17.5-5.1 17.5 2.28 17.5 5.1" stroke="#000" stroke-opacity="0" stroke-width="3" fill="#dda600"/><path d="M819.83 697.08c2.3-.86 3.67-1.94 3.67-3.12 0-2.82-7.84-5.1-17.5-5.1s-17.5 2.28-17.5 5.1c0 1.18 1.36 2.26 3.67 3.12 3.2-1.2 8.2-1.98 13.83-1.98 5.64 0 10.64.77 13.83 1.98" stroke="#000" stroke-opacity="0" stroke-width="3" fill="#ffc000"/><path d="M799.02 723c0 1.28-.48 2.27-1.45 2.97-.93.7-2.28 1.06-3.94 1.06-1.45 0-2.62-.26-3.6-.75v-3.03c1.1.92 2.32 1.4 3.67 1.4.66 0 1.14-.15 1.5-.4.33-.25.5-.57.5-1 0-.4-.13-.75-.48-1.06-.34-.3-1.04-.7-2.07-1.17-2.1-.97-3.18-2.3-3.18-3.94 0-1.23.45-2.2 1.38-2.94.93-.73 2.14-1.1 3.7-1.1 1.35 0 2.45.18 3.35.52v2.82c-.93-.63-2-.94-3.18-.94-.62 0-1.07.12-1.45.38-.35.22-.52.58-.52 1 0 .42.14.76.45 1.03.28.27.83.62 1.73 1 1.28.6 2.2 1.22 2.76 1.84.54.62.82 1.37.82 2.3zm14.92-3.04c0 1.57-.38 2.95-1.1 4.1-.76 1.2-1.8 2-3.15 2.47l4.04 3.62h-4.08l-2.87-3.12c-1.25-.05-2.36-.36-3.36-.96-.97-.58-1.76-1.4-2.28-2.42-.55-1.03-.83-2.17-.83-3.44 0-1.37.3-2.62.9-3.7.6-1.1 1.38-1.96 2.45-2.54 1.07-.6 2.28-.9 3.63-.9 1.3 0 2.46.3 3.47.86 1 .6 1.8 1.4 2.34 2.45.57 1.04.84 2.24.84 3.6zm-3.28.15c0-1.36-.3-2.43-.93-3.22-.6-.8-1.45-1.2-2.52-1.2-1.06 0-1.93.4-2.58 1.2-.66.8-.97 1.86-.97 3.18 0 1.3.3 2.37.93 3.16.66.78 1.5 1.18 2.56 1.18 1.07 0 1.93-.38 2.55-1.15.65-.77.96-1.8.96-3.14zm13.85 6.7h-8.24v-13.5h3.1v11.03h5.15z" stroke="#000" stroke-opacity="0" stroke-width="3" fill="#fff"/><use xlink:href="#l" transform="matrix(1,0,0,1,754,752.3333333333333) translate(28.10555555555555 12.766666666666667)"/><use xlink:href="#m" transform="matrix(1,0,0,1,754,752.3333333333333) translate(55.14814814814815 12.766666666666667)"/><path d="M1850.87 906c0-3.3 2.68-6 6-6h8c3.3 0 6 2.7 6 6v48c0 3.3-2.7 6-6 6h-8c-3.32 0-6-2.7-6-6z" stroke="#000" stroke-opacity="0" stroke-width="3" fill="#fff" fill-opacity="0"/><g><use xlink:href="#n" transform="matrix(1,0,0,1,1855.8661417322833,905) translate(-1.481481481481481 29.444444444444443)"/></g><path d="M0 906c0-3.3 2.7-6 6-6h8c3.3 0 6 2.7 6 6v48c0 3.3-2.7 6-6 6H6c-3.3 0-6-2.7-6-6z" stroke="#000" stroke-opacity="0" stroke-width="3" fill="#fff" fill-opacity="0"/><g><use xlink:href="#o" transform="matrix(1,0,0,1,5,905) translate(-1.481481481481481 29.444444444444443)"/></g><path d="M1850.87 266c0-3.3 2.68-6 6-6h8c3.3 0 6 2.7 6 6v48c0 3.3-2.7 6-6 6h-8c-3.32 0-6-2.7-6-6z" stroke="#000" stroke-opacity="0" stroke-width="3" fill="#fff" fill-opacity="0"/><g><use xlink:href="#n" transform="matrix(1,0,0,1,1855.8661417322833,265) translate(-1.481481481481481 29.444444444444443)"/></g><path d="M0 266c0-3.3 2.7-6 6-6h8c3.3 0 6 2.7 6 6v48c0 3.3-2.7 6-6 6H6c-3.3 0-6-2.7-6-6z" stroke="#000" stroke-opacity="0" stroke-width="3" fill="#fff" fill-opacity="0"/><g><use xlink:href="#o" transform="matrix(1,0,0,1,5,265) translate(-1.481481481481481 29.444444444444443)"/></g><defs><path fill="#333" d="M212-179c-10-28-35-45-73-45-59 0-87 40-87 99 0 60 29 101 89 101 43 0 62-24 78-52l27 14C228-24 195 4 139 4 59 4 22-46 18-125c-6-104 99-153 187-111 19 9 31 26 39 46" id="p"/><path fill="#333" d="M100-194c62-1 85 37 85 99 1 63-27 99-86 99S16-35 15-95c0-66 28-99 85-99zM99-20c44 1 53-31 53-75 0-43-8-75-51-75s-53 32-53 75 10 74 51 75" id="q"/><path fill="#333" d="M210-169c-67 3-38 105-44 169h-31v-121c0-29-5-50-35-48C34-165 62-65 56 0H25l-1-190h30c1 10-1 24 2 32 10-44 99-50 107 0 11-21 27-35 58-36 85-2 47 119 55 194h-31v-121c0-29-5-49-35-48" id="r"/><path fill="#333" d="M115-194c55 1 70 41 70 98S169 2 115 4C84 4 66-9 55-30l1 105H24l-1-265h31l2 30c10-21 28-34 59-34zm-8 174c40 0 45-34 45-75s-6-73-45-74c-42 0-51 32-51 76 0 43 10 73 51 73" id="s"/><path fill="#333" d="M141-36C126-15 110 5 73 4 37 3 15-17 15-53c-1-64 63-63 125-63 3-35-9-54-41-54-24 1-41 7-42 31l-33-3c5-37 33-52 76-52 45 0 72 20 72 64v82c-1 20 7 32 28 27v20c-31 9-61-2-59-35zM48-53c0 20 12 33 32 33 41-3 63-29 60-74-43 2-92-5-92 41" id="t"/><path fill="#333" d="M117-194c89-4 53 116 60 194h-32v-121c0-31-8-49-39-48C34-167 62-67 57 0H25l-1-190h30c1 10-1 24 2 32 11-22 29-35 61-36" id="u"/><path fill="#333" d="M179-190L93 31C79 59 56 82 12 73V49c39 6 53-20 64-50L1-190h34L92-34l54-156h33" id="v"/><g id="a"><use transform="matrix(0.04320987654320987,0,0,0.04320987654320987,0,0)" xlink:href="#p"/><use transform="matrix(0.04320987654320987,0,0,0.04320987654320987,11.191358024691356,0)" xlink:href="#q"/><use transform="matrix(0.04320987654320987,0,0,0.04320987654320987,19.83333333333333,0)" xlink:href="#r"/><use transform="matrix(0.04320987654320987,0,0,0.04320987654320987,32.753086419753075,0)" xlink:href="#s"/><use transform="matrix(0.04320987654320987,0,0,0.04320987654320987,41.39506172839505,0)" xlink:href="#t"/><use transform="matrix(0.04320987654320987,0,0,0.04320987654320987,50.037037037037024,0)" xlink:href="#u"/><use transform="matrix(0.04320987654320987,0,0,0.04320987654320987,58.679012345679,0)" xlink:href="#v"/></g><path fill="#333" d="M205 0l-28-72H64L36 0H1l101-248h38L239 0h-34zm-38-99l-47-123c-12 45-31 82-46 123h93" id="w"/><use transform="matrix(0.04320987654320987,0,0,0.04320987654320987,0,0)" xlink:href="#w" id="b"/><path fill="#333" d="M160-131c35 5 61 23 61 61C221 17 115-2 30 0v-248c76 3 177-17 177 60 0 33-19 50-47 57zm-97-11c50-1 110 9 110-42 0-47-63-36-110-37v79zm0 115c55-2 124 14 124-45 0-56-70-42-124-44v89" id="x"/><use transform="matrix(0.04320987654320987,0,0,0.04320987654320987,0,0)" xlink:href="#x" id="c"/><path fill="#333" d="M185-189c-5-48-123-54-124 2 14 75 158 14 163 119 3 78-121 87-175 55-17-10-28-26-33-46l33-7c5 56 141 63 141-1 0-78-155-14-162-118-5-82 145-84 179-34 5 7 8 16 11 25" id="y"/><path fill="#333" d="M59-47c-2 24 18 29 38 22v24C64 9 27 4 27-40v-127H5v-23h24l9-43h21v43h35v23H59v120" id="z"/><path fill="#333" d="M85-194c31 0 48 13 60 33l-1-100h32l1 261h-30c-2-10 0-23-3-31C134-8 116 4 85 4 32 4 16-35 15-94c0-66 23-100 70-100zm9 24c-40 0-46 34-46 75 0 40 6 74 45 74 42 0 51-32 51-76 0-42-9-74-50-73" id="A"/><path fill="#333" d="M114-163C36-179 61-72 57 0H25l-1-190h30c1 12-1 29 2 39 6-27 23-49 58-41v29" id="B"/><path fill="#333" d="M24-231v-30h32v30H24zM24 0v-190h32V0H24" id="C"/><path fill="#333" d="M9 0v-24l116-142H16v-24h144v24L44-24h123V0H9" id="D"/><g id="d"><use transform="matrix(0.04320987654320987,0,0,0.04320987654320987,0,0)" xlink:href="#y"/><use transform="matrix(0.04320987654320987,0,0,0.04320987654320987,10.370370370370368,0)" xlink:href="#z"/><use transform="matrix(0.04320987654320987,0,0,0.04320987654320987,14.691358024691354,0)" xlink:href="#t"/><use transform="matrix(0.04320987654320987,0,0,0.04320987654320987,23.33333333333333,0)" xlink:href="#u"/><use transform="matrix(0.04320987654320987,0,0,0.04320987654320987,31.975308641975303,0)" xlink:href="#A"/><use transform="matrix(0.04320987654320987,0,0,0.04320987654320987,40.61728395061728,0)" xlink:href="#t"/><use transform="matrix(0.04320987654320987,0,0,0.04320987654320987,49.259259259259245,0)" xlink:href="#B"/><use transform="matrix(0.04320987654320987,0,0,0.04320987654320987,54.40123456790122,0)" xlink:href="#A"/><use transform="matrix(0.04320987654320987,0,0,0.04320987654320987,63.04320987654321,0)" xlink:href="#C"/><use transform="matrix(0.04320987654320987,0,0,0.04320987654320987,66.45679012345678,0)" xlink:href="#D"/><use transform="matrix(0.04320987654320987,0,0,0.04320987654320987,74.23456790123456,0)" xlink:href="#t"/><use transform="matrix(0.04320987654320987,0,0,0.04320987654320987,82.87654320987653,0)" xlink:href="#z"/><use transform="matrix(0.04320987654320987,0,0,0.04320987654320987,87.19753086419752,0)" xlink:href="#C"/><use transform="matrix(0.04320987654320987,0,0,0.04320987654320987,90.61111111111109,0)" xlink:href="#q"/><use transform="matrix(0.04320987654320987,0,0,0.04320987654320987,99.25308641975306,0)" xlink:href="#u"/></g><path fill="#333" d="M234-2c-28 10-62 0-77-18C117 19 8 12 13-65c3-43 29-61 60-76-25-40-17-114 47-108 35 3 59 15 59 50 0 44-40 53-71 69 14 26 32 50 51 72 14-21 24-43 30-72l26 8c-9 33-21 57-38 82 13 13 33 22 57 15v23zM97-151c25-10 52-18 56-48-1-18-13-29-33-29-42 0-39 50-23 77zM42-66c-3 51 71 58 98 28-20-24-41-51-56-80-23 10-40 24-42 52" id="E"/><use transform="matrix(0.04320987654320987,0,0,0.04320987654320987,0,0)" xlink:href="#E" id="e"/><g id="f"><use transform="matrix(0.04320987654320987,0,0,0.04320987654320987,0,0)" xlink:href="#t"/><use transform="matrix(0.04320987654320987,0,0,0.04320987654320987,8.641975308641973,0)" xlink:href="#u"/><use transform="matrix(0.04320987654320987,0,0,0.04320987654320987,17.283950617283946,0)" xlink:href="#q"/><use transform="matrix(0.04320987654320987,0,0,0.04320987654320987,25.925925925925917,0)" xlink:href="#u"/><use transform="matrix(0.04320987654320987,0,0,0.04320987654320987,34.56790123456789,0)" xlink:href="#v"/><use transform="matrix(0.04320987654320987,0,0,0.04320987654320987,42.34567901234567,0)" xlink:href="#r"/><use transform="matrix(0.04320987654320987,0,0,0.04320987654320987,55.26543209876542,0)" xlink:href="#C"/><use transform="matrix(0.04320987654320987,0,0,0.04320987654320987,58.679012345679,0)" xlink:href="#D"/><use transform="matrix(0.04320987654320987,0,0,0.04320987654320987,66.45679012345677,0)" xlink:href="#t"/><use transform="matrix(0.04320987654320987,0,0,0.04320987654320987,75.09876543209874,0)" xlink:href="#z"/><use transform="matrix(0.04320987654320987,0,0,0.04320987654320987,79.41975308641973,0)" xlink:href="#C"/><use transform="matrix(0.04320987654320987,0,0,0.04320987654320987,82.83333333333331,0)" xlink:href="#q"/><use transform="matrix(0.04320987654320987,0,0,0.04320987654320987,91.47530864197529,0)" xlink:href="#u"/></g><path fill="#333" d="M30-248c118-7 216 8 213 122C240-48 200 0 122 0H30v-248zM63-27c89 8 146-16 146-99s-60-101-146-95v194" id="F"/><path fill="#333" d="M100-194c63 0 86 42 84 106H49c0 40 14 67 53 68 26 1 43-12 49-29l28 8c-11 28-37 45-77 45C44 4 14-33 15-96c1-61 26-98 85-98zm52 81c6-60-76-77-97-28-3 7-6 17-6 28h103" id="G"/><path fill="#333" d="M135-143c-3-34-86-38-87 0 15 53 115 12 119 90S17 21 10-45l28-5c4 36 97 45 98 0-10-56-113-15-118-90-4-57 82-63 122-42 12 7 21 19 24 35" id="H"/><path fill="#333" d="M96-169c-40 0-48 33-48 73s9 75 48 75c24 0 41-14 43-38l32 2c-6 37-31 61-74 61-59 0-76-41-82-99-10-93 101-131 147-64 4 7 5 14 7 22l-32 3c-4-21-16-35-41-35" id="I"/><path fill="#333" d="M108 0H70L1-190h34L89-25l56-165h34" id="J"/><g id="g"><use transform="matrix(0.04320987654320987,0,0,0.04320987654320987,0,0)" xlink:href="#F"/><use transform="matrix(0.04320987654320987,0,0,0.04320987654320987,11.191358024691356,0)" xlink:href="#G"/><use transform="matrix(0.04320987654320987,0,0,0.04320987654320987,19.83333333333333,0)" xlink:href="#H"/><use transform="matrix(0.04320987654320987,0,0,0.04320987654320987,27.611111111111104,0)" xlink:href="#I"/><use transform="matrix(0.04320987654320987,0,0,0.04320987654320987,35.38888888888888,0)" xlink:href="#B"/><use transform="matrix(0.04320987654320987,0,0,0.04320987654320987,40.53086419753085,0)" xlink:href="#C"/><use transform="matrix(0.04320987654320987,0,0,0.04320987654320987,43.944444444444436,0)" xlink:href="#s"/><use transform="matrix(0.04320987654320987,0,0,0.04320987654320987,52.58641975308641,0)" xlink:href="#z"/><use transform="matrix(0.04320987654320987,0,0,0.04320987654320987,56.9074074074074,0)" xlink:href="#C"/><use transform="matrix(0.04320987654320987,0,0,0.04320987654320987,60.32098765432099,0)" xlink:href="#J"/><use transform="matrix(0.04320987654320987,0,0,0.04320987654320987,68.09876543209876,0)" xlink:href="#G"/></g><g id="h"><use transform="matrix(0.04320987654320987,0,0,0.04320987654320987,0,0)" xlink:href="#t"/><use transform="matrix(0.04320987654320987,0,0,0.04320987654320987,8.641975308641973,0)" xlink:href="#u"/><use transform="matrix(0.04320987654320987,0,0,0.04320987654320987,17.283950617283946,0)" xlink:href="#A"/></g><path fill="#333" d="M30-248c87 1 191-15 191 75 0 78-77 80-158 76V0H30v-248zm33 125c57 0 124 11 124-50 0-59-68-47-124-48v98" id="K"/><g id="i"><use transform="matrix(0.04320987654320987,0,0,0.04320987654320987,0,0)" xlink:href="#K"/><use transform="matrix(0.04320987654320987,0,0,0.04320987654320987,10.370370370370368,0)" xlink:href="#B"/><use transform="matrix(0.04320987654320987,0,0,0.04320987654320987,15.512345679012343,0)" xlink:href="#G"/><use transform="matrix(0.04320987654320987,0,0,0.04320987654320987,24.154320987654316,0)" xlink:href="#A"/><use transform="matrix(0.04320987654320987,0,0,0.04320987654320987,32.79629629629629,0)" xlink:href="#C"/><use transform="matrix(0.04320987654320987,0,0,0.04320987654320987,36.20987654320987,0)" xlink:href="#I"/><use transform="matrix(0.04320987654320987,0,0,0.04320987654320987,43.98765432098765,0)" xlink:href="#z"/><use transform="matrix(0.04320987654320987,0,0,0.04320987654320987,48.30864197530864,0)" xlink:href="#C"/><use transform="matrix(0.04320987654320987,0,0,0.04320987654320987,51.72222222222222,0)" xlink:href="#J"/><use transform="matrix(0.04320987654320987,0,0,0.04320987654320987,59.5,0)" xlink:href="#G"/></g><path fill="#333" d="M24 0v-261h32V0H24" id="L"/><g id="j"><use transform="matrix(0.04320987654320987,0,0,0.04320987654320987,0,0)" xlink:href="#t"/><use transform="matrix(0.04320987654320987,0,0,0.04320987654320987,8.641975308641973,0)" xlink:href="#u"/><use transform="matrix(0.04320987654320987,0,0,0.04320987654320987,17.283950617283946,0)" xlink:href="#t"/><use transform="matrix(0.04320987654320987,0,0,0.04320987654320987,25.925925925925917,0)" xlink:href="#L"/><use transform="matrix(0.04320987654320987,0,0,0.04320987654320987,29.339506172839496,0)" xlink:href="#v"/><use transform="matrix(0.04320987654320987,0,0,0.04320987654320987,37.11728395061727,0)" xlink:href="#H"/><use transform="matrix(0.04320987654320987,0,0,0.04320987654320987,44.89506172839505,0)" xlink:href="#C"/><use transform="matrix(0.04320987654320987,0,0,0.04320987654320987,48.30864197530863,0)" xlink:href="#H"/></g><path fill="#333" d="M209 0H11v-25l151-195H24v-28h176v25L50-27h159V0" id="M"/><use transform="matrix(0.04320987654320987,0,0,0.04320987654320987,0,0)" xlink:href="#M" id="k"/><path d="M30-248c118-7 216 8 213 122C240-48 200 0 122 0H30v-248zM63-27c89 8 146-16 146-99s-60-101-146-95v194" id="N"/><path d="M141-36C126-15 110 5 73 4 37 3 15-17 15-53c-1-64 63-63 125-63 3-35-9-54-41-54-24 1-41 7-42 31l-33-3c5-37 33-52 76-52 45 0 72 20 72 64v82c-1 20 7 32 28 27v20c-31 9-61-2-59-35zM48-53c0 20 12 33 32 33 41-3 63-29 60-74-43 2-92-5-92 41" id="O"/><path d="M59-47c-2 24 18 29 38 22v24C64 9 27 4 27-40v-127H5v-23h24l9-43h21v43h35v23H59v120" id="P"/><g id="l"><use transform="matrix(0.031481481481481485,0,0,0.031481481481481485,0,0)" xlink:href="#N"/><use transform="matrix(0.031481481481481485,0,0,0.031481481481481485,8.153703703703705,0)" xlink:href="#O"/><use transform="matrix(0.031481481481481485,0,0,0.031481481481481485,14.450000000000003,0)" xlink:href="#P"/><use transform="matrix(0.031481481481481485,0,0,0.031481481481481485,17.59814814814815,0)" xlink:href="#O"/></g><path d="M197 0v-115H63V0H30v-248h33v105h134v-105h34V0h-34" id="Q"/><path d="M84 4C-5 8 30-112 23-190h32v120c0 31 7 50 39 49 72-2 45-101 50-169h31l1 190h-30c-1-10 1-25-2-33-11 22-28 36-60 37" id="R"/><path d="M115-194c53 0 69 39 70 98 0 66-23 100-70 100C84 3 66-7 56-30L54 0H23l1-261h32v101c10-23 28-34 59-34zm-8 174c40 0 45-34 45-75 0-40-5-75-45-74-42 0-51 32-51 76 0 43 10 73 51 73" id="S"/><g id="m"><use transform="matrix(0.031481481481481485,0,0,0.031481481481481485,0,0)" xlink:href="#Q"/><use transform="matrix(0.031481481481481485,0,0,0.031481481481481485,8.153703703703705,0)" xlink:href="#R"/><use transform="matrix(0.031481481481481485,0,0,0.031481481481481485,14.450000000000003,0)" xlink:href="#S"/></g><path fill="#e5e5e5" d="M18-27v-27l151-64-151-65v-27l175 74v36" id="T"/><use transform="matrix(0.06172839506172839,0,0,0.06172839506172839,0,0)" xlink:href="#T" id="n"/><path fill="#e5e5e5" d="M18-100v-36l175-74v27L42-118l151 64v27" id="U"/><use transform="matrix(0.06172839506172839,0,0,0.06172839506172839,0,0)" xlink:href="#U" id="o"/></defs></g></svg>